<?xml version="1.0" encoding="utf-8"?>
<!-- Generator: Adobe Illustrator 17.0.0, SVG Export Plug-In . SVG Version: 6.00 Build 0)  -->
<!DOCTYPE svg PUBLIC "-//W3C//DTD SVG 1.1//EN" "http://www.w3.org/Graphics/SVG/1.1/DTD/svg11.dtd">
<svg version="1.1" id="Layer_1" xmlns="http://www.w3.org/2000/svg" xmlns:xlink="http://www.w3.org/1999/xlink" x="0px" y="0px"
	 width="1079.623px" height="261.417px" viewBox="361.473 56.899 1079.623 261.417"
	 enable-background="new 361.473 56.899 1079.623 261.417" xml:space="preserve">
<g>
	<g>
		<path d="M432.404,160.742c0-1-0.081-1.709-0.241-2.124c-0.161-0.415-0.438-0.797-0.831-1.146h5.789v9.274
			c-1.001,0.287-1.952,0.5-2.855,0.644c-0.903,0.143-1.769,0.215-2.6,0.215c-3.252,0-5.872-0.903-7.859-2.707
			c-1.988-1.805-2.982-4.159-2.982-7.063c0-2.895,0.987-5.238,2.962-7.029c1.974-1.791,4.579-2.687,7.813-2.687
			c0.67,0,1.324,0.042,1.963,0.127c0.638,0.085,1.275,0.217,1.909,0.395l0.335,3.779c-0.911-0.473-1.718-0.815-2.419-1.026
			c-0.702-0.21-1.387-0.314-2.057-0.314c-1.644,0-2.928,0.561-3.853,1.682c-0.925,1.121-1.387,2.683-1.387,4.684
			c0,2.145,0.467,3.86,1.4,5.146c0.934,1.286,2.178,1.93,3.732,1.93c0.214,0,0.417-0.009,0.61-0.027
			c0.192-0.018,0.382-0.044,0.569-0.081L432.404,160.742L432.404,160.742z"/>
		<path d="M446.897,167.604c-2.478,0-4.509-0.739-6.094-2.215c-1.585-1.476-2.377-3.364-2.377-5.662
			c0-1.051,0.232-2.076,0.697-3.073c0.465-0.998,1.122-1.878,1.972-2.642c0.778-0.684,1.664-1.208,2.658-1.572
			c0.994-0.364,2.042-0.545,3.144-0.545c2.499,0,4.539,0.731,6.12,2.193c1.581,1.462,2.371,3.349,2.371,5.662
			c0,1.052-0.236,2.083-0.707,3.095c-0.472,1.012-1.125,1.889-1.961,2.63c-0.771,0.691-1.653,1.219-2.647,1.583
			C449.08,167.421,448.021,167.604,446.897,167.604z M442.888,159.241c0,1.858,0.38,3.351,1.14,4.478
			c0.76,1.127,1.759,1.691,2.998,1.691c1.203,0,2.153-0.441,2.852-1.324c0.698-0.882,1.048-2.101,1.048-3.658
			c0-1.858-0.382-3.347-1.145-4.467c-0.763-1.12-1.768-1.68-3.014-1.68c-1.189,0-2.133,0.443-2.831,1.329
			C443.238,156.497,442.888,157.707,442.888,159.241z"/>
		<path d="M464.28,167.535c-1.464-0.405-2.549-0.902-3.255-1.489c-0.706-0.589-1.327-1.667-1.865-3.233l-2.924-8.43
			c-0.161-0.471-0.336-0.912-0.524-1.324c-0.188-0.412-0.395-0.817-0.623-1.214h4.999c0.081,0.625,0.247,1.302,0.496,2.03
			c0.044,0.125,0.074,0.209,0.088,0.254l2.935,8.772l2.582-7.823c0.118-0.368,0.199-0.657,0.243-0.866
			c0.044-0.209,0.066-0.403,0.066-0.579c0-0.279-0.063-0.553-0.188-0.822c-0.125-0.269-0.35-0.59-0.673-0.965h3.961L464.28,167.535z
			"/>
		<path d="M469.28,167.535c0.331-0.309,0.565-0.645,0.701-1.011c0.135-0.365,0.203-0.954,0.203-1.767v-10.156
			c0-0.843-0.068-1.438-0.203-1.785c-0.135-0.346-0.369-0.67-0.701-0.971h9.184v3.265c-0.354-0.331-0.693-0.565-1.017-0.701
			c-0.324-0.135-0.73-0.203-1.22-0.203h-1.604v3.908h3.005v3.016c-0.181-0.256-0.414-0.452-0.701-0.587
			c-0.286-0.136-0.614-0.204-0.983-0.204h-1.322v4.722c0.369,0.075,0.691,0.128,0.966,0.158c0.275,0.031,0.532,0.045,0.774,0.045
			c0.859,0,1.595-0.09,2.208-0.271c0.613-0.181,1.188-0.474,1.722-0.881l-0.836,3.423L469.28,167.535L469.28,167.535z"/>
		<path d="M486.47,167.535h-6.202c0.331-0.309,0.565-0.645,0.701-1.011c0.135-0.365,0.203-0.954,0.203-1.767v-10.156
			c0-0.843-0.068-1.438-0.203-1.785c-0.135-0.346-0.369-0.67-0.701-0.971h6.111c2.041,0,3.564,0.348,4.57,1.045
			c1.005,0.697,1.508,1.745,1.508,3.146c0,0.836-0.231,1.565-0.695,2.186c-0.463,0.621-1.184,1.166-2.163,1.633l2.835,4.858
			c0.241,0.406,0.537,0.83,0.887,1.271c0.351,0.44,0.751,0.89,1.203,1.349l-2.61,0.249c-0.075,0.007-0.157,0.013-0.243,0.017
			c-0.086,0.004-0.217,0.006-0.39,0.006c-0.813,0-1.493-0.207-2.039-0.621c-0.546-0.414-1.094-1.149-1.644-2.203l-2.033-3.977v3.954
			c0,0.813,0.069,1.402,0.209,1.767C485.915,166.89,486.147,167.227,486.47,167.535z M485.566,159.571
			c0.836-0.211,1.472-0.576,1.909-1.096c0.437-0.52,0.655-1.163,0.655-1.931c0-0.723-0.197-1.294-0.593-1.711
			s-0.936-0.627-1.621-0.627c-0.098,0-0.169,0.002-0.215,0.005c-0.045,0.004-0.09,0.014-0.135,0.028L485.566,159.571
			L485.566,159.571z"/>
		<path d="M493.218,167.217c0.391-0.421,0.666-0.872,0.824-1.356s0.238-1.315,0.238-2.496v-8.255c0-0.812-0.094-1.439-0.283-1.881
			c-0.188-0.442-0.5-0.904-0.935-1.383h4.736l6.972,9.407v-6.064c0-0.745-0.085-1.363-0.254-1.854
			c-0.17-0.491-0.446-0.987-0.83-1.488h4.393c-0.317,0.524-0.548,1.039-0.692,1.544c-0.144,0.505-0.216,1.127-0.216,1.865v0.631
			v11.72c-2.147-0.25-4.05-1.461-5.71-3.63c-0.059-0.081-0.103-0.14-0.133-0.177l-4.648-6.053v6.529
			c0,0.782,0.077,1.378,0.232,1.787c0.155,0.41,0.417,0.795,0.786,1.157h-4.482V167.217z"/>
		<path d="M517.105,167.564c-2.448,0-4.454-0.729-6.019-2.188c-1.565-1.459-2.348-3.323-2.348-5.592
			c0-1.039,0.229-2.051,0.688-3.036c0.459-0.985,1.108-1.855,1.948-2.61c0.769-0.676,1.644-1.193,2.625-1.553
			c0.982-0.359,2.017-0.539,3.105-0.539c2.468,0,4.483,0.722,6.046,2.166c1.562,1.445,2.343,3.309,2.343,5.592
			c0,1.039-0.233,2.058-0.699,3.057c-0.466,1-1.112,1.866-1.937,2.599c-0.761,0.683-1.633,1.204-2.614,1.564
			C519.261,167.384,518.215,167.564,517.105,167.564z M513.146,159.304c0,1.835,0.375,3.31,1.126,4.423
			c0.75,1.113,1.738,1.67,2.961,1.67c1.188,0,2.127-0.436,2.817-1.307c0.69-0.871,1.035-2.076,1.035-3.613
			c0-1.835-0.377-3.306-1.131-4.412c-0.754-1.106-1.746-1.659-2.977-1.659c-1.174,0-2.106,0.437-2.796,1.312
			C513.491,156.594,513.146,157.788,513.146,159.304z"/>
		<path d="M531.668,167.423c0.329-0.307,0.561-0.641,0.695-1.004c0.134-0.363,0.202-0.948,0.202-1.755v-10.083
			c0-0.808-0.067-1.389-0.202-1.744c-0.134-0.355-0.366-0.686-0.695-0.993h6.225c2.834,0,5.039,0.69,6.617,2.069
			c1.577,1.38,2.366,3.295,2.366,5.748c0,1.264-0.226,2.415-0.679,3.454c-0.452,1.039-1.116,1.94-1.99,2.703
			c-0.643,0.561-1.413,0.968-2.31,1.222c-0.897,0.254-2.034,0.381-3.409,0.381L531.668,167.423L531.668,167.423z M536.839,164.922
			c0.254,0.067,0.499,0.118,0.735,0.151c0.236,0.034,0.473,0.05,0.713,0.05c1.226,0,2.215-0.484,2.966-1.452
			c0.751-0.968,1.127-2.26,1.127-3.875c0-1.66-0.366-2.967-1.099-3.92c-0.733-0.953-1.731-1.43-2.995-1.43
			c-0.217,0-0.447,0.012-0.69,0.034c-0.243,0.022-0.495,0.056-0.757,0.101L536.839,164.922L536.839,164.922z"/>
		<path d="M546.821,167.423c0.329-0.307,0.561-0.641,0.695-1.004c0.134-0.363,0.202-0.948,0.202-1.755v-10.083
			c0-0.837-0.067-1.428-0.202-1.772c-0.134-0.344-0.366-0.665-0.695-0.964h9.118v3.241c-0.352-0.329-0.688-0.561-1.009-0.695
			c-0.321-0.134-0.725-0.202-1.212-0.202h-1.593v3.881h2.984v2.995c-0.18-0.254-0.412-0.449-0.695-0.583
			c-0.284-0.135-0.61-0.202-0.976-0.202h-1.312v4.688c0.366,0.075,0.686,0.127,0.959,0.157c0.273,0.03,0.529,0.045,0.768,0.045
			c0.853,0,1.583-0.089,2.193-0.269c0.609-0.18,1.18-0.471,1.71-0.875l-0.83,3.398H546.821z"/>
	</g>
	<path d="M361.473,243.249c1.806-2.112,3.284-4.128,4.436-6.05c1.152-1.92,2.075-3.88,2.766-5.877l18.784-53.701
		c0.115-0.346,0.288-0.826,0.518-1.441c0.845-2.189,1.267-3.937,1.267-5.243c0-1.19-0.279-2.343-0.835-3.456
		c-0.557-1.114-1.585-2.535-3.082-4.265h28.29l22.702,65.627c0.998,2.882,2.256,5.551,3.774,8.009
		c1.517,2.459,3.198,4.591,5.042,6.396h-34.687c1.766-1.997,2.919-3.552,3.457-4.667c0.538-1.114,0.807-2.305,0.807-3.573
		c0-0.768-0.049-1.498-0.144-2.189c-0.097-0.692-0.24-1.287-0.432-1.786l-4.034-11.524h-24.084l-3.745,11.005
		c-0.461,1.422-0.759,2.459-0.893,3.111c-0.135,0.654-0.202,1.23-0.202,1.729c0,1.383,0.317,2.728,0.951,4.033
		c0.634,1.307,1.585,2.593,2.852,3.86H361.473z M389.936,208.333h16.421l-8.182-24.661L389.936,208.333z"/>
	<path d="M434.847,243.249c1.78-1.915,3.032-3.973,3.755-6.174c0.722-2.2,1.084-5.989,1.084-11.365v-37.596
		c0-3.696-0.428-6.552-1.285-8.568c-0.857-2.016-2.277-4.115-4.258-6.3h21.57l31.751,42.838v-27.618
		c0-3.393-0.387-6.207-1.159-8.442c-0.773-2.234-2.033-4.493-3.78-6.779h20.008c-1.445,2.386-2.495,4.73-3.15,7.031
		c-0.655,2.302-0.983,5.133-0.983,8.492v2.873v53.371c-9.777-1.143-18.446-6.652-26.005-16.531
		c-0.269-0.369-0.471-0.637-0.604-0.807l-21.167-27.567v29.734c0,3.562,0.353,6.275,1.058,8.14c0.706,1.864,1.898,3.62,3.578,5.266
		L434.847,243.249L434.847,243.249z"/>
	<path d="M542.539,219.437c0-3.73-0.3-6.369-0.899-7.918s-1.632-2.972-3.097-4.271h21.58v34.568
		c-3.73,1.066-7.277,1.865-10.64,2.398c-3.364,0.532-6.594,0.799-9.691,0.799c-12.122,0-21.888-3.364-29.298-10.091
		c-7.411-6.727-11.115-15.503-11.115-26.325c0-10.791,3.679-19.524,11.039-26.201c7.359-6.677,17.067-10.017,29.123-10.017
		c2.497,0,4.936,0.158,7.318,0.475c2.381,0.317,4.754,0.808,7.119,1.474l1.249,14.087c-3.397-1.765-6.402-3.038-9.017-3.822
		c-2.615-0.782-5.17-1.174-7.668-1.174c-6.128,0-10.915,2.09-14.362,6.27c-3.447,4.179-5.17,9.999-5.17,17.458
		c0,7.992,1.74,14.387,5.22,19.182c3.48,4.795,8.117,7.193,13.912,7.193c0.799,0,1.556-0.032,2.273-0.1
		c0.716-0.066,1.424-0.166,2.123-0.299L542.539,219.437L542.539,219.437z"/>
	<path d="M601.386,244.055c-11.306,0-20.573-3.368-27.803-10.105c-7.23-6.737-10.845-15.347-10.845-25.83
		c0-4.798,1.06-9.472,3.181-14.025c2.119-4.551,5.118-8.569,8.996-12.052c3.549-3.122,7.592-5.513,12.127-7.172
		c4.535-1.659,9.316-2.49,14.345-2.49c11.404,0,20.711,3.336,27.926,10.007c7.213,6.671,10.82,15.281,10.82,25.83
		c0,4.798-1.076,9.507-3.229,14.123c-2.152,4.618-5.135,8.619-8.947,12.004c-3.518,3.154-7.543,5.562-12.077,7.221
		C611.344,243.224,606.513,244.055,601.386,244.055z M583.098,205.9c0,8.478,1.732,15.29,5.2,20.433
		c3.466,5.144,8.027,7.714,13.679,7.714c5.488,0,9.826-2.013,13.014-6.039c3.187-4.025,4.782-9.588,4.782-16.686
		c0-8.478-1.743-15.273-5.226-20.383c-3.484-5.109-8.068-7.666-13.754-7.666c-5.422,0-9.727,2.021-12.914,6.063
		C584.691,193.379,583.098,198.9,583.098,205.9z"/>
	<path d="M637.827,244.055c1.495-1.393,2.548-2.914,3.16-4.562c0.612-1.648,0.917-4.308,0.917-7.979v-45.828
		c0-3.805-0.306-6.491-0.917-8.054c-0.612-1.563-1.665-3.025-3.16-4.385h27.986c-1.496,1.394-2.548,2.898-3.16,4.512
		c-0.612,1.615-0.917,4.257-0.917,7.927v46.339c1.97,0.646,3.891,1.121,5.76,1.427c1.868,0.306,3.739,0.458,5.607,0.458
		c2.548,0,4.97-0.382,7.264-1.147c2.295-0.764,4.646-1.979,7.061-3.645l-3.772,14.937H637.827z"/>
	<path d="M682.383,244.055c1.583-1.852,2.88-3.62,3.89-5.305c1.01-1.684,1.819-3.402,2.425-5.153l16.471-47.09
		c0.101-0.304,0.253-0.724,0.455-1.263c0.741-1.92,1.111-3.452,1.111-4.598c0-1.043-0.245-2.054-0.732-3.031
		c-0.488-0.977-1.39-2.223-2.703-3.74h24.807l19.907,57.548c0.876,2.527,1.978,4.868,3.31,7.023c1.33,2.156,2.804,4.026,4.42,5.608
		h-30.416c1.549-1.751,2.559-3.115,3.032-4.092c0.471-0.977,0.707-2.021,0.707-3.133c0-0.673-0.042-1.313-0.126-1.92
		c-0.084-0.607-0.211-1.128-0.379-1.566l-3.536-10.105h-21.12l-3.284,9.65c-0.404,1.247-0.665,2.156-0.783,2.728
		c-0.119,0.574-0.177,1.078-0.177,1.516c0,1.213,0.278,2.392,0.834,3.537c0.556,1.146,1.39,2.274,2.501,3.385H682.383z
		 M707.342,213.437h14.4l-7.174-21.625L707.342,213.437z"/>
	<g>
		
			<linearGradient id="SVGID_1_" gradientUnits="userSpaceOnUse" x1="687.7302" y1="154.9672" x2="820.4439" y2="154.9672" gradientTransform="matrix(1 0 0 -1 -126 301.298)">
			<stop  offset="0.0161" style="stop-color:#1D1D1B"/>
			<stop  offset="0.3252" style="stop-color:#575756"/>
			<stop  offset="0.4144" style="stop-color:#4D4D4B"/>
			<stop  offset="0.569" style="stop-color:#31312F"/>
			<stop  offset="0.6606" style="stop-color:#1D1D1B"/>
			<stop  offset="0.7495" style="stop-color:#2D2D2B"/>
			<stop  offset="0.8578" style="stop-color:#3C3C3B"/>
		</linearGradient>
		<path fill="url(#SVGID_1_)" d="M561.73,145.922v39.274c0,0,25.692-28.31,65.457-22.092c39.765,6.218,58.42-4.255,67.257-17.183
			v-38.456c0,0-24.055,22.255-66.357,18.655C585.785,122.521,561.73,145.922,561.73,145.922z"/>
		
			<linearGradient id="SVGID_2_" gradientUnits="userSpaceOnUse" x1="728.3138" y1="189.8227" x2="859.5549" y2="189.8227" gradientTransform="matrix(1 0 0 -1 -126 301.298)">
			<stop  offset="0" style="stop-color:#A6231E"/>
			<stop  offset="0.0078" style="stop-color:#AC231E"/>
			<stop  offset="0.0456" style="stop-color:#C5251E"/>
			<stop  offset="0.0803" style="stop-color:#D4261E"/>
			<stop  offset="0.1085" style="stop-color:#D9261E"/>
			<stop  offset="0.2582" style="stop-color:#ED806B"/>
			<stop  offset="0.2966" style="stop-color:#E86856"/>
			<stop  offset="0.3622" style="stop-color:#E04438"/>
			<stop  offset="0.4158" style="stop-color:#DB2E25"/>
			<stop  offset="0.4502" style="stop-color:#D9261E"/>
			<stop  offset="0.631" style="stop-color:#A6231E"/>
			<stop  offset="0.6574" style="stop-color:#AC231E"/>
			<stop  offset="0.7861" style="stop-color:#C5251E"/>
			<stop  offset="0.9039" style="stop-color:#D4261E"/>
			<stop  offset="1" style="stop-color:#D9261E"/>
		</linearGradient>
		<path fill="url(#SVGID_2_)" d="M733.555,72.283c0,0-24.71,29.947-67.911,22.746c-53.348-9-63.33,16.692-63.33,16.692v38.947
			c0,0,21.437-24.546,63.82-19.637c42.383,4.909,67.421-16.692,67.421-16.692L733.555,72.283L733.555,72.283z"/>
		
			<linearGradient id="SVGID_3_" gradientUnits="userSpaceOnUse" x1="791.3165" y1="179.5542" x2="873.4645" y2="179.5542" gradientTransform="matrix(1 0 0 -1 -126 301.298)">
			<stop  offset="0" style="stop-color:#DB8E00"/>
			<stop  offset="0.1116" style="stop-color:#FCC000"/>
			<stop  offset="0.1225" style="stop-color:#FCC400"/>
			<stop  offset="0.2222" style="stop-color:#FEE100"/>
			<stop  offset="0.279" style="stop-color:#FFEC00"/>
			<stop  offset="0.51" style="stop-color:#FCC000"/>
			<stop  offset="0.554" style="stop-color:#FCC802"/>
			<stop  offset="0.6215" style="stop-color:#FCDD09"/>
			<stop  offset="0.6535" style="stop-color:#FCEA0D"/>
			<stop  offset="0.7057" style="stop-color:#FCDA08"/>
			<stop  offset="0.778" style="stop-color:#FCCB03"/>
			<stop  offset="0.8644" style="stop-color:#FCC301"/>
			<stop  offset="1" style="stop-color:#FCC000"/>
		</linearGradient>
		<path fill="url(#SVGID_3_)" d="M747.465,97.157v23.237c0,0-9.327,16.364-41.401,11.782c-24.71-3.437-40.747,14.155-40.747,14.155
			v-26.429c0,0,9.491-14.564,35.837-9.655S747.465,97.157,747.465,97.157z"/>
	</g>
</g>
<g>
	<path d="M387.976,268.297h-2.282v10.68h1.997v2.885h-7.445v-2.885h1.626v-6.276h-0.114l-4.878,7.82h-1.598l-5.249-8.124h-0.115
		v6.58h1.769v2.885h-7.331v-2.885h1.997v-10.68h-2.282v-2.886h5.477l6.589,10.199h0.115l6.19-10.199h5.534v2.886H387.976z"/>
	<path d="M399.213,281.862h-7.815v-2.885h1.997v-10.68h-1.997v-2.886h7.815v2.885h-1.997v10.68h1.997V281.862z"/>
	<path d="M422.661,268.297h-1.997v13.564l-2.139,0.025l-9.954-10.452h-0.115v7.541h2.567v2.885h-8.129v-2.885h1.997v-10.68h-2.31
		v-2.885h5.049l9.356,9.769h0.114v-6.883h-2.681v-2.886h8.244L422.661,268.297L422.661,268.297z"/>
	<path d="M433.785,281.862h-7.815v-2.885h1.997v-10.68h-1.997v-2.886h7.815v2.885h-1.997v10.68h1.997V281.862z"/>
	<path d="M451.327,276.876c0,1.704-0.647,3.003-1.94,3.898c-1.294,0.894-3.072,1.342-5.335,1.342c-1.256,0-2.506-0.144-3.751-0.43
		c-1.245-0.286-2.229-0.717-2.952-1.291l0.57-4.074l3.052,0.253l-0.029,1.999c0.646,0.304,1.198,0.486,1.654,0.544
		c0.456,0.059,0.845,0.089,1.17,0.089c1.007,0,1.835-0.114,2.481-0.342c0.646-0.227,0.97-0.754,0.97-1.581
		c0-0.912-0.381-1.523-1.141-1.835c-0.761-0.312-1.654-0.553-2.681-0.721c-0.895-0.135-1.792-0.333-2.696-0.596
		c-0.904-0.261-1.659-0.691-2.267-1.29c-0.609-0.599-0.912-1.489-0.912-2.67c0-1.838,0.703-3.134,2.111-3.885
		c1.407-0.751,2.947-1.126,4.621-1.126c1.217,0,2.377,0.164,3.48,0.493c1.103,0.329,1.95,0.772,2.539,1.328l0.171,3.569
		l-3.052,0.253l-0.257-1.924c-0.475-0.286-0.955-0.481-1.44-0.582c-0.484-0.101-0.955-0.152-1.412-0.152
		c-0.761,0-1.393,0.118-1.896,0.354c-0.504,0.236-0.756,0.65-0.756,1.24c0,0.692,0.323,1.173,0.97,1.442
		c0.647,0.271,1.388,0.49,2.224,0.658c0.76,0.135,1.649,0.325,2.667,0.57c1.017,0.245,1.911,0.7,2.681,1.366
		C450.942,274.443,451.327,275.476,451.327,276.876z"/>
	<path d="M471.579,270.979l-3.252,0.253l-0.57-2.935h-2.938v10.68h3.023v2.885h-9.698v-2.885h2.852v-10.68h-2.938l-0.57,2.935
		l-3.251-0.253l0.57-5.568h16.201L471.579,270.979z"/>
	<path d="M489.064,281.862h-14.319v-2.885h1.997v-10.68h-1.997v-2.886h14.148l0.57,4.809l-3.252,0.253l-0.57-2.176h-5.077v3.872
		h7.816v2.86h-7.816v3.947h5.249l0.57-2.176l3.252,0.253L489.064,281.862z M487.324,263.741l-6.133,0.708l-0.456-1.442l5.762-2.228
		L487.324,263.741z"/>
	<path d="M509.801,281.862h-4.735l-3.68-6.276h-2.51v3.391h1.997v2.885h-7.815v-2.885h1.997v-10.68h-1.997v-2.886h8.385
		c2.3,0,4.069,0.417,5.306,1.252c1.236,0.835,1.854,2.08,1.854,3.733c0,1.113-0.323,2.046-0.97,2.796
		c-0.647,0.751-1.503,1.312-2.567,1.683l2.51,4.1h2.224L509.801,281.862L509.801,281.862z M504.495,270.473
		c0-0.826-0.276-1.396-0.827-1.708c-0.552-0.312-1.521-0.468-2.909-0.468h-1.882v4.606h1.826c1.464,0,2.463-0.211,2.994-0.633
		C504.228,271.848,504.495,271.249,504.495,270.473z"/>
	<path d="M520.496,281.862h-7.815v-2.885h1.997v-10.68h-1.997v-2.886h7.815v2.885h-1.997v10.68h1.997V281.862z"/>
	<path d="M542.347,273.611c0,2.329-0.841,4.328-2.524,5.998c-1.683,1.671-4.027,2.506-7.031,2.506c-3.024,0-5.343-0.835-6.96-2.506
		c-1.616-1.67-2.425-3.652-2.425-5.947c0-2.396,0.856-4.411,2.567-6.049c1.711-1.636,4.022-2.454,6.931-2.454
		c2.967,0,5.281,0.831,6.946,2.492C541.514,269.314,542.347,271.3,542.347,273.611z M538.21,273.712c0-1.755-0.456-3.121-1.369-4.1
		c-0.912-0.978-2.234-1.468-3.965-1.468c-1.845,0-3.194,0.519-4.05,1.556c-0.855,1.038-1.283,2.333-1.283,3.885
		c0,1.502,0.418,2.801,1.256,3.898c0.836,1.096,2.234,1.645,4.194,1.645c1.806,0,3.128-0.502,3.964-1.506
		C537.792,276.619,538.21,275.315,538.21,273.712z"/>
	<path d="M570.414,273.561c0,2.497-0.828,4.505-2.481,6.023c-1.655,1.518-3.946,2.277-6.875,2.277h-8.728v-2.885h1.997v-10.68
		h-1.997v-2.886h8.501c3.175,0,5.566,0.751,7.172,2.253C569.611,269.166,570.414,271.132,570.414,273.561z M566.307,273.611
		c0-3.542-1.856-5.315-5.563-5.315h-2.596v10.68h2.596c1.787,0,3.161-0.421,4.12-1.265
		C565.827,276.868,566.307,275.501,566.307,273.611z"/>
	<path d="M591.208,281.862h-7.389v-2.885h1.484l-0.684-1.67h-6.304l-0.77,1.67h1.741v2.885h-7.303v-2.885h1.683l5.306-10.68h-2.567
		v-2.886h6.361l6.675,13.564h1.769V281.862L591.208,281.862z M583.592,274.876l-1.94-4.631h-0.171l-2.082,4.631H583.592z"/>
	<path d="M613.942,281.862h-14.319v-2.885h1.997v-10.68h-1.997v-2.886h14.149l0.57,4.809l-3.252,0.253l-0.57-2.176h-5.077v3.872
		h7.815v2.86h-7.815v3.947h5.249l0.57-2.176l3.252,0.253L613.942,281.862z"/>
	<path d="M636.048,273.561c0,2.497-0.827,4.505-2.481,6.023c-1.655,1.518-3.946,2.277-6.875,2.277h-8.728v-2.885h1.997v-10.68
		h-1.997v-2.886h8.501c3.175,0,5.567,0.751,7.173,2.253C635.244,269.166,636.048,271.132,636.048,273.561z M631.941,273.611
		c0-3.542-1.855-5.315-5.563-5.315h-2.595v10.68h2.595c1.787,0,3.162-0.421,4.121-1.265
		C631.459,276.868,631.941,275.501,631.941,273.611z"/>
	<path d="M657.697,268.297h-1.654v6.757c0,1.164-0.247,2.286-0.741,3.366c-0.495,1.08-1.323,1.965-2.482,2.657
		c-1.161,0.692-2.73,1.038-4.707,1.038c-2.815,0-4.802-0.688-5.961-2.063c-1.16-1.375-1.74-2.949-1.74-4.72v-7.035h-1.655v-2.886
		h7.644v2.885h-2.167v6.934c0,1.13,0.309,2.062,0.927,2.796c0.618,0.734,1.669,1.102,3.152,1.102c1.463,0,2.525-0.371,3.18-1.113
		c0.656-0.743,0.985-1.729,0.985-2.961v-6.757h-2.168v-2.886h7.388V268.297z"/>
	<path d="M676.581,280.116c-0.609,0.59-1.584,1.071-2.923,1.442c-1.341,0.371-2.677,0.557-4.009,0.557
		c-2.644,0-4.858-0.755-6.646-2.266c-1.787-1.509-2.681-3.488-2.681-5.935c0-1.282,0.305-2.598,0.913-3.947
		c0.608-1.35,1.607-2.488,2.995-3.417c1.387-0.927,3.252-1.392,5.591-1.392c1.578,0,2.938,0.206,4.079,0.62s2.006,0.865,2.595,1.354
		l0.457,3.822l-3.109,0.253l-0.399-2.176c-0.494-0.286-1.093-0.506-1.796-0.658c-0.704-0.152-1.37-0.228-1.998-0.228
		c-1.597,0-2.866,0.473-3.808,1.418c-0.942,0.945-1.412,2.32-1.412,4.125c0,1.906,0.513,3.289,1.54,4.15s2.339,1.291,3.936,1.291
		c1.503,0,2.682-0.228,3.537-0.684l0.399-2.454l3.109,0.253L676.581,280.116z"/>
	<path d="M699.03,281.862h-7.389v-2.885h1.484l-0.684-1.67h-6.304l-0.77,1.67h1.741v2.885h-7.303v-2.885h1.683l5.306-10.68h-2.567
		v-2.886h6.361l6.675,13.564h1.769V281.862z M691.413,274.876l-1.94-4.631h-0.171l-2.082,4.631H691.413z"/>
	<path d="M713.149,284.924c0,0.844-0.391,1.426-1.169,1.746c-0.78,0.32-1.626,0.482-2.538,0.482c-1.504,0-2.606-0.253-3.31-0.759
		l0.656-1.771c0.209,0.118,0.499,0.244,0.87,0.38c0.371,0.136,0.823,0.202,1.354,0.202c0.684,0,1.027-0.177,1.027-0.531
		c0-0.185-0.071-0.338-0.214-0.455c-0.142-0.118-0.442-0.178-0.898-0.178h-1.055v-2.075c-2.188-0.338-3.979-1.223-5.377-2.658
		c-1.398-1.433-2.096-3.231-2.096-5.39c0-1.282,0.303-2.598,0.912-3.947c0.608-1.35,1.602-2.488,2.982-3.417
		c1.378-0.927,3.247-1.392,5.604-1.392c1.579,0,2.933,0.206,4.064,0.62c1.131,0.414,2.001,0.865,2.611,1.354l0.457,3.822
		l-3.11,0.253l-0.398-2.176c-0.476-0.286-1.07-0.506-1.783-0.658c-0.714-0.152-1.383-0.228-2.011-0.228
		c-1.598,0-2.866,0.473-3.808,1.418c-0.942,0.945-1.413,2.32-1.413,4.125c0,1.906,0.514,3.289,1.541,4.15
		c1.026,0.86,2.338,1.291,3.936,1.291c1.503,0,2.681-0.228,3.537-0.684l0.398-2.454l3.11,0.253l-0.371,3.872
		c-0.57,0.54-1.451,0.987-2.639,1.341c-1.189,0.354-2.401,0.564-3.637,0.633v0.81h0.227c0.951,0,1.611,0.215,1.982,0.645
		C712.963,283.976,713.149,284.434,713.149,284.924z"/>
	<path d="M739.106,281.862h-7.389v-2.885h1.484l-0.684-1.67h-6.304l-0.77,1.67h1.741v2.885h-7.303v-2.885h1.683l5.306-10.68h-2.567
		v-2.886h6.361l6.675,13.564h1.769V281.862z M733.115,261.11c0,0.743-0.156,1.434-0.471,2.075c-0.313,0.642-0.966,0.961-1.954,0.961
		c-0.704,0-1.317-0.13-1.84-0.392c-0.523-0.261-1.108-0.392-1.754-0.392c-0.628,0-1.027,0.278-1.198,0.835l-1.426-0.405
		c-0.039-0.473,0.119-1.055,0.471-1.747c0.352-0.691,1.012-1.037,1.983-1.037c0.628,0,1.212,0.131,1.754,0.392
		c0.542,0.262,1.051,0.393,1.526,0.393c0.266,0,0.527-0.067,0.784-0.202c0.257-0.135,0.452-0.388,0.585-0.759L733.115,261.11z
		 M731.49,274.876l-1.94-4.631h-0.171l-2.082,4.631H731.49z"/>
	<path d="M759.387,273.611c0,2.329-0.841,4.328-2.525,5.998c-1.683,1.671-4.027,2.506-7.03,2.506c-3.024,0-5.344-0.835-6.961-2.506
		c-1.616-1.67-2.424-3.652-2.424-5.947c0-2.396,0.855-4.411,2.567-6.049c1.711-1.636,4.022-2.454,6.932-2.454
		c2.966,0,5.281,0.831,6.945,2.492C758.555,269.314,759.387,271.3,759.387,273.611z M755.251,273.712c0-1.755-0.457-3.121-1.369-4.1
		c-0.912-0.978-2.235-1.468-3.965-1.468c-1.845,0-3.194,0.519-4.05,1.556c-0.856,1.038-1.284,2.333-1.284,3.885
		c0,1.502,0.418,2.801,1.256,3.898c0.837,1.096,2.234,1.645,4.193,1.645c1.806,0,3.128-0.502,3.965-1.506
		C754.832,276.619,755.251,275.315,755.251,273.712z"/>
</g>
<rect x="820.914" y="58.663" stroke="#000000" stroke-miterlimit="10" width="4.932" height="258.972"/>
<g>
	<path d="M897.43,129.308h-23.088v-4.56h3.6v-22.08h-3.6v-4.561h13.584v4.561h-4.656v22.08h9.601l0.96-6.48l4.56,0.385
		L897.43,129.308z"/>
	<path d="M912.07,129.308h-11.52v-3.937h3.216v-13.631h-3.408v-3.984h8.496v17.615h3.216V129.308z M903.478,103.292v-5.664h5.232
		v5.664H903.478z"/>
	<path d="M933.19,122.876c0,2.24-0.92,3.953-2.76,5.137c-1.841,1.184-4.185,1.775-7.032,1.775c-1.536,0-3.08-0.176-4.632-0.527
		c-1.553-0.352-2.952-0.88-4.2-1.584l0.768-5.568l4.032,0.385l-0.048,2.783c0.607,0.257,1.256,0.432,1.944,0.528
		c0.688,0.096,1.304,0.144,1.848,0.144c1.312,0,2.456-0.231,3.432-0.695c0.977-0.464,1.465-1.16,1.465-2.088
		c0-0.896-0.44-1.537-1.32-1.92c-0.881-0.385-1.977-0.68-3.288-0.889c-1.313-0.207-2.624-0.496-3.936-0.863
		c-1.313-0.368-2.409-0.977-3.288-1.824c-0.881-0.848-1.32-2.119-1.32-3.816c0-2.496,0.952-4.207,2.855-5.136
		c1.904-0.928,3.912-1.392,6.024-1.392c2.784,0,5.407,0.656,7.872,1.967l0.528,5.328l-4.032,0.48l-0.432-3.216
		c-1.248-0.479-2.513-0.72-3.792-0.72c-0.993,0-1.833,0.199-2.521,0.6c-0.688,0.4-1.032,1.031-1.032,1.896
		c0,0.896,0.433,1.52,1.296,1.871c0.864,0.354,1.937,0.633,3.217,0.84c1.279,0.209,2.56,0.497,3.84,0.865
		c1.279,0.367,2.352,0.976,3.216,1.823C932.758,119.909,933.19,121.18,933.19,122.876z"/>
	<path d="M953.397,122.972c-0.607,4.544-3.136,6.815-7.584,6.815c-2.304,0-4.136-0.607-5.495-1.824
		c-1.361-1.215-2.04-2.91-2.04-5.088v-11.327h-3.168v-3.792h3.168v-6.672h5.136v6.672h8.016v3.792h-8.016v10.512
		c0,2.272,0.991,3.408,2.976,3.408c0.544,0,1.152-0.2,1.824-0.601c0.672-0.399,1.136-1.432,1.392-3.096L953.397,122.972z"/>
	<path d="M956.756,109.34c1.6-0.768,3.024-1.297,4.272-1.584c1.248-0.288,2.688-0.432,4.319-0.432c2.4,0,4.376,0.607,5.929,1.823
		c1.552,1.217,2.327,3.04,2.327,5.472v9.696c0,1.28,0.528,1.921,1.584,1.921c0.288,0,0.656-0.064,1.104-0.193l0.048,2.832
		c-1.056,0.607-2.208,0.912-3.456,0.912c-2.72,0-4.192-1.423-4.416-4.271v-0.096c-0.641,1.12-1.544,2.129-2.712,3.023
		c-1.168,0.896-2.616,1.344-4.344,1.344c-1.505,0-2.984-0.455-4.44-1.367s-2.184-2.504-2.184-4.776c0-2.655,1.056-4.407,3.168-5.256
		c2.112-0.848,4.399-1.272,6.864-1.272c0.607,0,1.231,0.018,1.872,0.049c0.64,0.031,1.231,0.08,1.775,0.144v-1.2
		c0-1.279-0.224-2.432-0.672-3.455c-0.448-1.024-1.568-1.537-3.36-1.537c-0.672,0-1.304,0.049-1.896,0.145
		c-0.593,0.096-1.16,0.288-1.704,0.576l-0.864,3.312l-4.128-0.432L956.756,109.34z M968.468,120.764v-0.768
		c-0.544-0.064-1.104-0.128-1.68-0.192c-0.576-0.063-1.169-0.097-1.776-0.097c-1.28,0-2.424,0.225-3.432,0.672
		c-1.008,0.449-1.512,1.345-1.512,2.688c0,1.952,1.039,2.929,3.119,2.929c1.216,0,2.368-0.439,3.456-1.32
		C967.732,123.796,968.34,122.493,968.468,120.764z"/>
	<path d="M1019.828,102.669h-2.881v13.775c0,2.209-0.407,4.328-1.224,6.36s-2.177,3.704-4.08,5.017
		c-1.904,1.313-4.488,1.967-7.752,1.967c-4.704,0-7.984-1.295-9.84-3.888c-1.856-2.592-2.784-5.567-2.784-8.928v-14.304h-2.976
		v-4.561h12.191v4.561h-3.888v14.16c0,2.464,0.592,4.456,1.776,5.976c1.184,1.521,3.12,2.28,5.808,2.28
		c2.623,0,4.576-0.76,5.856-2.28c1.279-1.52,1.92-3.64,1.92-6.36v-13.775h-3.984v-4.561h11.856V102.669z M1011.86,94.413
		l-10.031,1.584l-0.673-2.353l9.505-3.983L1011.86,94.413z"/>
	<path d="M1047.571,129.308h-11.52v-3.937h3.168v-8.447c0-2.048-0.368-3.496-1.104-4.344s-1.76-1.272-3.071-1.272
		c-1.632,0-2.921,0.528-3.864,1.584c-0.944,1.056-1.433,2.353-1.464,3.888v8.592h3.216v3.937h-11.568v-3.937h3.217v-13.631h-3.36
		v-3.984h8.496v3.504c1.504-2.623,3.888-3.936,7.152-3.936c2.047,0,3.808,0.623,5.279,1.871s2.208,3.201,2.208,5.856v10.319h3.216
		V129.308z"/>
	<path d="M1061.203,129.308h-11.52v-3.937h3.216v-13.631h-3.408v-3.984h8.496v17.615h3.216V129.308z M1052.612,103.292v-5.664h5.232
		v5.664H1052.612z"/>
	<path d="M1083.476,121.581c-0.225,1.92-1.073,3.768-2.544,5.543c-1.473,1.776-3.841,2.664-7.104,2.664
		c-3.072,0-5.576-0.928-7.512-2.783c-1.937-1.855-2.904-4.561-2.904-8.112c0-3.487,1-6.288,3-8.399c2-2.113,4.615-3.168,7.848-3.168
		c1.28,0,2.561,0.16,3.841,0.479c1.279,0.32,2.544,0.849,3.792,1.584l0.863,6.048l-4.128,0.432l-0.72-3.552
		c-1.185-0.575-2.433-0.864-3.744-0.864c-3.584,0-5.376,2.4-5.376,7.201c0,4.672,1.84,7.008,5.521,7.008
		c2.688,0,4.303-1.633,4.848-4.896L1083.476,121.581z"/>
	<path d="M1088.034,109.34c1.6-0.768,3.024-1.297,4.272-1.584c1.248-0.288,2.688-0.432,4.319-0.432c2.4,0,4.376,0.607,5.929,1.823
		c1.552,1.217,2.327,3.04,2.327,5.472v9.696c0,1.28,0.528,1.921,1.584,1.921c0.288,0,0.656-0.064,1.104-0.193l0.048,2.832
		c-1.056,0.607-2.208,0.912-3.456,0.912c-2.72,0-4.192-1.423-4.416-4.271v-0.096c-0.641,1.12-1.544,2.129-2.712,3.023
		c-1.168,0.896-2.616,1.344-4.344,1.344c-1.505,0-2.984-0.455-4.44-1.367s-2.184-2.504-2.184-4.776c0-2.655,1.056-4.407,3.168-5.256
		c2.112-0.848,4.399-1.272,6.864-1.272c0.607,0,1.231,0.018,1.872,0.049c0.64,0.031,1.231,0.08,1.775,0.144v-1.2
		c0-1.279-0.224-2.432-0.672-3.455c-0.448-1.024-1.568-1.537-3.36-1.537c-0.672,0-1.304,0.049-1.896,0.145
		c-0.593,0.096-1.16,0.288-1.704,0.576l-0.864,3.312l-4.128-0.432L1088.034,109.34z M1099.746,120.764v-0.768
		c-0.544-0.064-1.104-0.128-1.68-0.192c-0.576-0.063-1.169-0.097-1.776-0.097c-1.28,0-2.424,0.225-3.432,0.672
		c-1.008,0.449-1.512,1.345-1.512,2.688c0,1.952,1.039,2.929,3.119,2.929c1.216,0,2.368-0.439,3.456-1.32
		C1099.01,123.796,1099.618,122.493,1099.746,120.764z"/>
	<path d="M1144.386,129.308h-8.304v-4.128c-0.641,1.248-1.56,2.328-2.76,3.24s-2.776,1.367-4.729,1.367
		c-2.816,0-5.048-0.959-6.695-2.879c-1.648-1.92-2.473-4.561-2.473-7.92c0-3.072,0.775-5.785,2.328-8.137
		c1.552-2.352,3.991-3.527,7.32-3.527c1.695,0,3.127,0.344,4.296,1.031c1.168,0.688,2.071,1.607,2.712,2.76V100.22h-4.656v-3.937
		h9.792v29.088h3.168V129.308z M1136.082,118.94v-1.632c-0.032-1.792-0.576-3.216-1.632-4.272c-1.057-1.056-2.353-1.584-3.888-1.584
		c-1.729,0-3.129,0.648-4.2,1.944c-1.073,1.296-1.608,3.064-1.608,5.304c0,2.273,0.535,4.001,1.608,5.185
		c1.071,1.185,2.359,1.776,3.863,1.776c1.76,0,3.168-0.721,4.225-2.16C1135.506,122.06,1136.05,120.541,1136.082,118.94z"/>
	<path d="M1166.754,122.732c-0.192,1.889-1.121,3.536-2.784,4.944c-1.664,1.408-3.952,2.111-6.864,2.111
		c-3.137,0-5.712-0.919-7.728-2.76c-2.017-1.84-3.024-4.551-3.024-8.136c0-3.296,0.92-6.048,2.76-8.256s4.408-3.312,7.704-3.312
		c2.977,0,5.336,0.887,7.08,2.664c1.744,1.775,2.632,4.023,2.664,6.743c0,0.896-0.096,1.856-0.288,2.88h-14.544
		c0.288,4.032,2.208,6.049,5.76,6.049c1.664,0,2.856-0.4,3.576-1.201c0.72-0.799,1.192-1.646,1.416-2.543L1166.754,122.732z
		 M1161.281,116.444c0.128-1.279-0.168-2.487-0.888-3.623c-0.72-1.137-1.928-1.705-3.624-1.705c-1.536,0-2.704,0.513-3.504,1.537
		c-0.8,1.023-1.296,2.287-1.488,3.791H1161.281z"/>
	<path d="M1208.13,102.669h-2.881l-11.136,26.64h-3.84l-11.136-26.64h-2.977v-4.561h12.288v4.561h-3.456l7.393,18.479h0.239
		l7.2-18.479h-3.504v-4.561h11.809V102.669z"/>
	<path d="M1208.61,109.34c1.6-0.768,3.024-1.297,4.272-1.584c1.248-0.288,2.688-0.432,4.319-0.432c2.4,0,4.376,0.607,5.929,1.823
		c1.552,1.217,2.327,3.04,2.327,5.472v9.696c0,1.28,0.528,1.921,1.584,1.921c0.288,0,0.656-0.064,1.104-0.193l0.048,2.832
		c-1.056,0.607-2.208,0.912-3.456,0.912c-2.72,0-4.192-1.423-4.416-4.271v-0.096c-0.641,1.12-1.544,2.129-2.712,3.023
		c-1.168,0.896-2.616,1.344-4.344,1.344c-1.505,0-2.984-0.455-4.44-1.367s-2.184-2.504-2.184-4.776c0-2.655,1.056-4.407,3.168-5.256
		c2.112-0.848,4.399-1.272,6.864-1.272c0.607,0,1.231,0.018,1.872,0.049c0.64,0.031,1.231,0.08,1.775,0.144v-1.2
		c0-1.279-0.224-2.432-0.672-3.455c-0.448-1.024-1.568-1.537-3.36-1.537c-0.672,0-1.304,0.049-1.896,0.145
		c-0.593,0.096-1.16,0.288-1.704,0.576l-0.864,3.312l-4.128-0.432L1208.61,109.34z M1220.322,120.764v-0.768
		c-0.544-0.064-1.104-0.128-1.68-0.192c-0.576-0.063-1.169-0.097-1.776-0.097c-1.28,0-2.424,0.225-3.432,0.672
		c-1.008,0.449-1.512,1.345-1.512,2.688c0,1.952,1.039,2.929,3.119,2.929c1.216,0,2.368-0.439,3.456-1.32
		C1219.585,123.796,1220.194,122.493,1220.322,120.764z"/>
	<path d="M1255.169,111.741h-3.12v16.752c0,3.424-0.952,6.191-2.855,8.303c-1.904,2.113-4.745,3.168-8.521,3.168
		c-2.24,0-4.336-0.479-6.288-1.439s-3.328-2.608-4.128-4.943l3.984-2.16c1.344,2.943,3.52,4.416,6.527,4.416
		c1.792,0,3.265-0.641,4.416-1.92c1.152-1.281,1.729-3.104,1.729-5.473v-3.216c-0.608,1.151-1.48,2.136-2.616,2.952
		s-2.696,1.225-4.68,1.225c-2.528,0-4.713-0.889-6.553-2.664c-1.84-1.777-2.76-4.36-2.76-7.752c0-3.072,0.824-5.785,2.473-8.137
		c1.647-2.352,4.039-3.527,7.176-3.527c3.264,0,5.584,1.264,6.96,3.791v-3.359h8.256V111.741z M1246.913,119.036v-1.728
		c0-1.792-0.513-3.216-1.536-4.272c-1.024-1.056-2.304-1.584-3.84-1.584c-1.793,0-3.168,0.648-4.128,1.944s-1.44,3.048-1.44,5.257
		c0,2.271,0.48,3.943,1.44,5.016s2.176,1.607,3.647,1.607c1.824,0,3.256-0.64,4.296-1.92
		C1246.393,122.077,1246.913,120.637,1246.913,119.036z"/>
	<path d="M1259.345,109.34c1.6-0.768,3.024-1.297,4.272-1.584c1.248-0.288,2.688-0.432,4.319-0.432c2.4,0,4.376,0.607,5.929,1.823
		c1.552,1.217,2.327,3.04,2.327,5.472v9.696c0,1.28,0.528,1.921,1.584,1.921c0.288,0,0.656-0.064,1.104-0.193l0.048,2.832
		c-1.056,0.607-2.208,0.912-3.456,0.912c-2.72,0-4.192-1.423-4.416-4.271v-0.096c-0.641,1.12-1.544,2.129-2.712,3.023
		c-1.168,0.896-2.616,1.344-4.344,1.344c-1.505,0-2.984-0.455-4.44-1.367s-2.184-2.504-2.184-4.776c0-2.655,1.056-4.407,3.168-5.256
		c2.112-0.848,4.399-1.272,6.864-1.272c0.607,0,1.231,0.018,1.872,0.049c0.64,0.031,1.231,0.08,1.775,0.144v-1.2
		c0-1.279-0.224-2.432-0.672-3.455c-0.448-1.024-1.568-1.537-3.36-1.537c-0.672,0-1.304,0.049-1.896,0.145
		c-0.593,0.096-1.16,0.288-1.704,0.576l-0.864,3.312l-4.128-0.432L1259.345,109.34z M1271.057,120.764v-0.768
		c-0.544-0.064-1.104-0.128-1.68-0.192c-0.576-0.063-1.169-0.097-1.776-0.097c-1.28,0-2.424,0.225-3.432,0.672
		c-1.008,0.449-1.512,1.345-1.512,2.688c0,1.952,1.039,2.929,3.119,2.929c1.216,0,2.368-0.439,3.456-1.32
		C1270.321,123.796,1270.929,122.493,1271.057,120.764z"/>
	<path d="M1299.906,122.876c0,2.24-0.92,3.953-2.76,5.137c-1.841,1.184-4.185,1.775-7.032,1.775c-1.536,0-3.08-0.176-4.632-0.527
		c-1.553-0.352-2.952-0.88-4.2-1.584l0.768-5.568l4.032,0.385l-0.048,2.783c0.607,0.257,1.256,0.432,1.944,0.528
		c0.688,0.096,1.304,0.144,1.848,0.144c1.312,0,2.456-0.231,3.432-0.695c0.977-0.464,1.465-1.16,1.465-2.088
		c0-0.896-0.44-1.537-1.32-1.92c-0.881-0.385-1.977-0.68-3.288-0.889c-1.313-0.207-2.624-0.496-3.936-0.863
		c-1.313-0.368-2.409-0.977-3.288-1.824c-0.881-0.848-1.32-2.119-1.32-3.816c0-2.496,0.952-4.207,2.855-5.136
		c1.904-0.928,3.912-1.392,6.024-1.392c2.784,0,5.407,0.656,7.872,1.967l0.528,5.328l-4.032,0.48l-0.432-3.216
		c-1.248-0.479-2.513-0.72-3.792-0.72c-0.993,0-1.833,0.199-2.521,0.6c-0.688,0.4-1.032,1.031-1.032,1.896
		c0,0.896,0.433,1.52,1.296,1.871c0.864,0.354,1.937,0.633,3.217,0.84c1.279,0.209,2.56,0.497,3.84,0.865
		c1.279,0.367,2.352,0.976,3.216,1.823C1299.474,119.909,1299.906,121.18,1299.906,122.876z"/>
</g>
<g>
	<path d="M897.863,207.526h-6.576v-4.416c-0.704,1.28-1.673,2.416-2.904,3.408c-1.232,0.992-2.824,1.487-4.776,1.487
		c-2.72,0-4.928-0.928-6.624-2.784c-1.696-1.855-2.544-4.432-2.544-7.728c0-1.855,0.313-3.68,0.937-5.472
		c0.624-1.792,1.64-3.28,3.048-4.464c1.408-1.184,3.296-1.776,5.664-1.776c1.504,0,2.896,0.336,4.176,1.008
		c1.279,0.672,2.288,1.648,3.024,2.928V176.71h-5.376v-2.208h8.016v30.816h3.937V207.526z M891.286,198.454v-4.176
		c-0.064-1.76-0.761-3.224-2.088-4.393c-1.329-1.167-2.889-1.752-4.681-1.752c-2.624,0-4.496,0.96-5.615,2.88
		c-1.121,1.921-1.681,4.017-1.681,6.288c0,2.721,0.655,4.793,1.968,6.217s2.96,2.136,4.944,2.136c1.983,0,3.655-0.8,5.016-2.4
		C890.51,201.654,891.222,200.054,891.286,198.454z"/>
	<path d="M919.03,201.574c-0.32,1.792-1.217,3.312-2.688,4.56s-3.456,1.872-5.951,1.872c-2.977,0-5.36-0.96-7.152-2.88
		c-1.793-1.92-2.688-4.575-2.688-7.968c0-3.328,0.864-6.056,2.593-8.184c1.728-2.128,4.047-3.192,6.96-3.192
		c2.911,0,5.095,0.953,6.552,2.856c1.456,1.904,2.184,4.073,2.184,6.505c0,0.704-0.08,1.504-0.239,2.399h-15.265
		c0.063,2.561,0.72,4.553,1.968,5.977s3.008,2.136,5.28,2.136c3.36,0,5.439-1.536,6.24-4.608L919.03,201.574z M916.053,195.334
		c0.16-1.695-0.256-3.319-1.247-4.872c-0.993-1.552-2.609-2.328-4.849-2.328c-2.145,0-3.72,0.72-4.728,2.16s-1.625,3.12-1.849,5.04
		H916.053z"/>
	<path d="M961.797,207.526h-10.704v-2.448h4.608l-2.544-6.768h-14.064l-2.688,6.768h4.943v2.448h-10.655v-2.448h2.928l10.56-26.304
		h-5.136v-2.448h8.4l11.184,28.752h3.168V207.526z M952.341,196.102l-5.952-15.745h-0.239l-6.192,15.745H952.341z"/>
	<path d="M972.932,207.526H962.42v-2.208h3.937V176.71h-3.984v-2.208h6.624v30.816h3.936V207.526z"/>
	<path d="M999.812,207.526h-6.624v-4.225c-0.672,1.409-1.664,2.544-2.976,3.408c-1.313,0.864-2.832,1.296-4.561,1.296
		c-2.112,0-3.872-0.655-5.28-1.968c-1.408-1.312-2.111-3.424-2.111-6.336v-11.232h-3.937v-2.256h6.576v12.864
		c0,2.433,0.52,4.137,1.56,5.112c1.04,0.977,2.36,1.464,3.961,1.464c1.92,0,3.511-0.752,4.775-2.256
		c1.264-1.504,1.928-3.024,1.992-4.561v-10.368h-4.704v-2.256h7.344v19.104h3.984V207.526z"/>
	<path d="M1027.46,207.526h-10.512v-2.208h3.936V194.71c0-2.432-0.504-4.136-1.512-5.112c-1.008-0.976-2.265-1.464-3.768-1.464
		c-2.081,0-3.744,0.68-4.992,2.04c-1.248,1.36-1.904,2.873-1.968,4.536v10.608h3.936v2.208h-10.56v-2.208h3.983v-16.849h-4.032
		v-2.256h6.673v3.936c1.567-2.912,4.096-4.368,7.584-4.368c2.111,0,3.855,0.656,5.231,1.968c1.376,1.313,2.064,3.424,2.064,6.336
		v11.232h3.935V207.526z"/>
	<path d="M1050.356,196.87c0,3.2-0.928,5.856-2.784,7.968c-1.855,2.112-4.399,3.168-7.632,3.168c-3.2,0-5.688-1.048-7.464-3.144
		c-1.775-2.096-2.664-4.712-2.664-7.849c0-3.104,0.88-5.751,2.641-7.944c1.759-2.191,4.319-3.288,7.68-3.288
		s5.904,1.097,7.632,3.288C1049.492,191.262,1050.356,193.862,1050.356,196.87z M1047.524,196.822c0-2.496-0.641-4.567-1.92-6.216
		c-1.28-1.648-3.137-2.472-5.567-2.472c-2.433,0-4.28,0.84-5.544,2.52c-1.265,1.68-1.896,3.752-1.896,6.216
		c0,2.433,0.632,4.505,1.896,6.216c1.264,1.713,3.111,2.568,5.544,2.568c2.431,0,4.287-0.848,5.567-2.544
		C1046.883,201.414,1047.524,199.318,1047.524,196.822z"/>
	<path d="M1070.995,201.478c0,1.984-0.84,3.568-2.52,4.752c-1.681,1.184-3.753,1.775-6.217,1.775c-1.504,0-2.983-0.216-4.439-0.647
		c-1.457-0.433-2.568-0.92-3.336-1.464l0.576-4.513l2.16,0.192l-0.192,2.88c1.504,0.8,3.216,1.2,5.136,1.2
		c1.567,0,2.983-0.313,4.248-0.937c1.264-0.624,1.896-1.607,1.896-2.951c0-1.28-0.456-2.192-1.368-2.736s-2.04-0.937-3.384-1.176
		c-1.345-0.24-2.681-0.504-4.009-0.792s-2.447-0.816-3.359-1.584c-0.912-0.769-1.368-1.969-1.368-3.601
		c0-2.176,0.783-3.736,2.352-4.68c1.567-0.943,3.28-1.416,5.137-1.416c1.471,0,2.855,0.208,4.151,0.624
		c1.296,0.417,2.344,0.864,3.145,1.344l0.479,4.896l-2.208,0.288l-0.576-3.601c-0.672-0.352-1.376-0.64-2.111-0.864
		c-0.736-0.223-1.584-0.336-2.544-0.336c-1.505,0-2.721,0.272-3.648,0.816c-0.929,0.544-1.392,1.424-1.392,2.64
		c0,1.217,0.447,2.072,1.344,2.568c0.896,0.496,2.016,0.856,3.36,1.08c1.344,0.224,2.68,0.496,4.008,0.815
		c1.327,0.32,2.439,0.881,3.336,1.681C1070.547,198.534,1070.995,199.782,1070.995,201.478z"/>
	<path d="M1109.923,207.526h-6.576v-4.416c-0.704,1.28-1.673,2.416-2.904,3.408c-1.232,0.992-2.824,1.487-4.776,1.487
		c-2.72,0-4.928-0.928-6.624-2.784c-1.696-1.855-2.544-4.432-2.544-7.728c0-1.855,0.313-3.68,0.937-5.472
		c0.624-1.792,1.64-3.28,3.048-4.464c1.408-1.184,3.296-1.776,5.664-1.776c1.504,0,2.896,0.336,4.176,1.008
		c1.279,0.672,2.288,1.648,3.024,2.928V176.71h-5.376v-2.208h8.016v30.816h3.937V207.526z M1103.347,198.454v-4.176
		c-0.064-1.76-0.761-3.224-2.088-4.393c-1.329-1.167-2.889-1.752-4.681-1.752c-2.624,0-4.496,0.96-5.615,2.88
		c-1.121,1.921-1.681,4.017-1.681,6.288c0,2.721,0.655,4.793,1.968,6.217s2.96,2.136,4.944,2.136c1.983,0,3.655-0.8,5.016-2.4
		C1102.571,201.654,1103.282,200.054,1103.347,198.454z"/>
	<path d="M1133.106,196.87c0,3.2-0.928,5.856-2.784,7.968c-1.855,2.112-4.399,3.168-7.632,3.168c-3.2,0-5.688-1.048-7.464-3.144
		c-1.775-2.096-2.664-4.712-2.664-7.849c0-3.104,0.88-5.751,2.641-7.944c1.759-2.191,4.319-3.288,7.68-3.288
		s5.904,1.097,7.632,3.288C1132.242,191.262,1133.106,193.862,1133.106,196.87z M1130.274,196.822c0-2.496-0.641-4.567-1.92-6.216
		c-1.28-1.648-3.137-2.472-5.567-2.472c-2.433,0-4.28,0.84-5.544,2.52c-1.265,1.68-1.896,3.752-1.896,6.216
		c0,2.433,0.632,4.505,1.896,6.216c1.264,1.713,3.111,2.568,5.544,2.568c2.431,0,4.287-0.848,5.567-2.544
		C1129.633,201.414,1130.274,199.318,1130.274,196.822z"/>
	<path d="M1172.081,185.686c0,3.2-0.944,5.648-2.832,7.344c-1.889,1.696-4.368,2.544-7.44,2.544h-6.432v9.504h5.521v2.448h-12.336
		v-2.448h4.079v-26.304h-4.079v-2.448h12.96c3.871,0,6.6,0.953,8.184,2.856C1171.289,181.086,1172.081,183.254,1172.081,185.686z
		 M1169.201,185.781c0-2.144-0.641-3.847-1.92-5.112c-1.28-1.264-3.248-1.896-5.904-1.896h-6v14.4h6.192
		c2.367,0,4.231-0.64,5.592-1.92C1168.521,189.974,1169.201,188.15,1169.201,185.781z"/>
	<path d="M1186.961,185.83c1.504,0,2.672,0.368,3.504,1.104l0.768,4.752l-2.208,0.288l-0.815-3.648
		c-0.48-0.127-1.024-0.192-1.632-0.192c-1.409,0-2.561,0.593-3.456,1.776c-0.896,1.185-1.344,2.688-1.344,4.512v10.896h5.231v2.208
		h-11.855v-2.208h3.983v-16.849h-4.032v-2.256h6.528v3.792c0.416-1.184,1.12-2.176,2.112-2.976
		C1184.737,186.23,1185.809,185.83,1186.961,185.83z"/>
	<path d="M1205.777,207.526h-10.561v-2.208h3.984v-16.849h-4.032v-2.256h6.672v19.104h3.937V207.526z M1198.865,180.261v-3.792
		h2.976v3.792H1198.865z"/>
	<path d="M1247.631,207.526h-10.512v-2.208h3.937V194.71c0-2.432-0.488-4.136-1.465-5.112c-0.977-0.976-2.2-1.464-3.672-1.464
		c-2.111,0-3.736,0.8-4.872,2.4c-1.136,1.601-1.736,3.057-1.8,4.369v10.416h3.937v2.208h-10.513v-2.208h3.937V194.71
		c0-2.464-0.488-4.176-1.464-5.136c-0.977-0.96-2.185-1.44-3.624-1.44c-2.112,0-3.737,0.785-4.872,2.352
		c-1.137,1.569-1.736,3.008-1.8,4.32v10.513h3.84v2.208h-10.464v-2.208h3.983v-16.849h-4.032v-2.256h6.673v4.176
		c0.703-1.312,1.647-2.407,2.832-3.288c1.183-0.88,2.671-1.32,4.464-1.32c1.663,0,3.104,0.425,4.319,1.272
		c1.216,0.849,2.032,2.184,2.448,4.008c0.672-1.504,1.647-2.76,2.928-3.768c1.28-1.008,2.864-1.512,4.752-1.512
		c2.08,0,3.784,0.656,5.112,1.968c1.327,1.313,1.992,3.424,1.992,6.336v11.232h3.936V207.526z"/>
	<path d="M1268.512,201.574c-0.32,1.792-1.217,3.312-2.688,4.56s-3.456,1.872-5.951,1.872c-2.977,0-5.36-0.96-7.152-2.88
		c-1.793-1.92-2.688-4.575-2.688-7.968c0-3.328,0.864-6.056,2.593-8.184c1.728-2.128,4.047-3.192,6.96-3.192
		c2.911,0,5.095,0.953,6.552,2.856c1.456,1.904,2.184,4.073,2.184,6.505c0,0.704-0.08,1.504-0.239,2.399h-15.265
		c0.063,2.561,0.72,4.553,1.968,5.977s3.008,2.136,5.28,2.136c3.36,0,5.439-1.536,6.24-4.608L1268.512,201.574z M1265.535,195.334
		c0.16-1.695-0.256-3.319-1.247-4.872c-0.993-1.552-2.609-2.328-4.849-2.328c-2.145,0-3.72,0.72-4.728,2.16s-1.625,3.12-1.849,5.04
		H1265.535z"/>
	<path d="M1282.623,207.526h-10.561v-2.208h3.984v-16.849h-4.032v-2.256h6.672v19.104h3.937V207.526z M1275.711,180.261v-3.792
		h2.976v3.792H1275.711z"/>
	<path d="M1296.879,185.83c1.504,0,2.672,0.368,3.504,1.104l0.768,4.752l-2.208,0.288l-0.815-3.648
		c-0.48-0.127-1.024-0.192-1.632-0.192c-1.409,0-2.561,0.593-3.456,1.776c-0.896,1.185-1.344,2.688-1.344,4.512v10.896h5.231v2.208
		h-11.855v-2.208h3.983v-16.849h-4.032v-2.256h6.528v3.792c0.416-1.184,1.12-2.176,2.112-2.976
		C1294.655,186.23,1295.727,185.83,1296.879,185.83z"/>
	<path d="M1326.014,196.87c0,3.2-0.928,5.856-2.784,7.968c-1.855,2.112-4.399,3.168-7.632,3.168c-3.2,0-5.688-1.048-7.464-3.144
		c-1.775-2.096-2.664-4.712-2.664-7.849c0-3.104,0.88-5.751,2.641-7.944c1.759-2.191,4.319-3.288,7.68-3.288
		s5.904,1.097,7.632,3.288C1325.151,191.262,1326.014,193.862,1326.014,196.87z M1323.182,196.822c0-2.496-0.641-4.567-1.92-6.216
		c-1.28-1.648-3.137-2.472-5.567-2.472c-2.433,0-4.28,0.84-5.544,2.52c-1.265,1.68-1.896,3.752-1.896,6.216
		c0,2.433,0.632,4.505,1.896,6.216c1.264,1.713,3.111,2.568,5.544,2.568c2.431,0,4.287-0.848,5.567-2.544
		C1322.541,201.414,1323.182,199.318,1323.182,196.822z"/>
</g>
<g>
	<path d="M900.598,280.196c-1.12,1.056-2.712,1.896-4.775,2.52c-2.064,0.624-4.2,0.936-6.408,0.936
		c-4.512,0-8.232-1.464-11.16-4.392c-2.928-2.928-4.392-6.696-4.392-11.304c0-2.592,0.543-5.152,1.632-7.68
		c1.087-2.527,2.784-4.624,5.088-6.288c2.304-1.664,5.248-2.496,8.832-2.496c2.623,0,4.863,0.369,6.72,1.104
		c1.855,0.737,3.328,1.601,4.416,2.592l0.816,6.768l-4.368,0.432l-0.769-4.32c-1.92-1.248-4.224-1.872-6.911-1.872
		c-2.945,0-5.305,1.024-7.08,3.072c-1.776,2.048-2.664,4.848-2.664,8.4c0,3.712,0.943,6.521,2.832,8.424
		c1.888,1.904,4.367,2.856,7.439,2.856c2.56,0,4.656-0.448,6.288-1.344l0.769-4.656l4.367,0.432L900.598,280.196z"/>
	<path d="M916.485,283.172h-11.52v-3.936h3.216v-13.632h-3.408v-3.984h8.496v17.616h3.216V283.172z M907.893,257.156v-5.664h5.232
		v5.664H907.893z"/>
	<path d="M938.757,275.444c-0.225,1.92-1.073,3.768-2.544,5.544c-1.473,1.776-3.841,2.664-7.104,2.664
		c-3.072,0-5.576-0.928-7.512-2.784c-1.937-1.855-2.904-4.56-2.904-8.112c0-3.487,1-6.288,3-8.4c2-2.112,4.615-3.168,7.848-3.168
		c1.28,0,2.561,0.16,3.841,0.48c1.279,0.32,2.544,0.848,3.792,1.584l0.863,6.048l-4.128,0.432l-0.72-3.552
		c-1.185-0.576-2.433-0.864-3.744-0.864c-3.584,0-5.376,2.4-5.376,7.2c0,4.672,1.84,7.008,5.521,7.008
		c2.688,0,4.303-1.632,4.848-4.896L938.757,275.444z"/>
	<path d="M952.244,283.172h-11.52v-3.936h3.216v-25.152h-3.408v-3.936h8.496v29.088h3.216V283.172z"/>
	<path d="M976.821,272.42c0,3.36-1.064,6.072-3.192,8.136c-2.128,2.064-4.888,3.096-8.279,3.096c-3.297,0-5.945-0.992-7.944-2.976
		c-2-1.984-3-4.672-3-8.064c0-3.136,0.943-5.832,2.832-8.088c1.888-2.256,4.688-3.384,8.4-3.384c3.743,0,6.543,1.121,8.399,3.36
		C975.892,266.741,976.821,269.38,976.821,272.42z M971.492,272.276c0-2.304-0.552-4.063-1.656-5.28
		c-1.104-1.216-2.536-1.824-4.296-1.824c-1.824,0-3.248,0.648-4.271,1.944c-1.024,1.296-1.536,3.032-1.536,5.208
		c0,2.048,0.487,3.776,1.464,5.184c0.976,1.409,2.424,2.112,4.344,2.112c1.855,0,3.313-0.68,4.368-2.04
		C970.964,276.221,971.492,274.453,971.492,272.276z"/>
	<path d="M1014.069,283.172h-8.304v-4.128c-0.641,1.248-1.56,2.328-2.76,3.24c-1.2,0.912-2.776,1.368-4.729,1.368
		c-2.816,0-5.048-0.96-6.695-2.88c-1.648-1.92-2.473-4.56-2.473-7.92c0-3.072,0.775-5.784,2.328-8.136
		c1.552-2.352,3.991-3.528,7.32-3.528c1.695,0,3.127,0.344,4.296,1.032c1.168,0.688,2.071,1.608,2.712,2.76v-10.896h-4.656v-3.936
		h9.792v29.088h3.168V283.172z M1005.765,272.804v-1.632c-0.032-1.792-0.576-3.216-1.632-4.272
		c-1.057-1.056-2.353-1.584-3.888-1.584c-1.729,0-3.129,0.648-4.2,1.944c-1.073,1.296-1.608,3.064-1.608,5.304
		c0,2.272,0.535,4,1.608,5.184c1.071,1.184,2.359,1.776,3.863,1.776c1.76,0,3.168-0.72,4.225-2.16
		C1005.189,275.924,1005.733,274.405,1005.765,272.804z"/>
	<path d="M1038.405,272.42c0,3.36-1.064,6.072-3.192,8.136c-2.128,2.064-4.888,3.096-8.279,3.096c-3.297,0-5.945-0.992-7.944-2.976
		c-2-1.984-3-4.672-3-8.064c0-3.136,0.943-5.832,2.832-8.088c1.888-2.256,4.688-3.384,8.4-3.384c3.743,0,6.543,1.121,8.399,3.36
		C1037.476,266.741,1038.405,269.38,1038.405,272.42z M1033.076,272.276c0-2.304-0.552-4.063-1.656-5.28
		c-1.104-1.216-2.536-1.824-4.296-1.824c-1.824,0-3.248,0.648-4.271,1.944c-1.024,1.296-1.536,3.032-1.536,5.208
		c0,2.048,0.487,3.776,1.464,5.184c0.976,1.409,2.424,2.112,4.344,2.112c1.855,0,3.313-0.68,4.368-2.04
		C1032.548,276.221,1033.076,274.453,1033.076,272.276z"/>
	<path d="M1075.028,283.172h-23.76v-4.56h3.6v-22.08h-3.6v-4.56h23.424l0.96,9.024l-4.56,0.384l-0.96-4.848h-9.937v8.64h13.729v4.56
		h-13.729v8.88h10.272l0.96-4.848l4.56,0.384L1075.028,283.172z"/>
	<path d="M1105.315,283.172h-11.52v-3.936h3.168v-8.448c0-2.048-0.368-3.496-1.104-4.344c-0.736-0.848-1.76-1.272-3.071-1.272
		c-1.632,0-2.921,0.528-3.864,1.584c-0.944,1.056-1.433,2.352-1.464,3.888v8.592h3.216v3.936h-11.568v-3.936h3.217v-13.632h-3.36
		v-3.984h8.496v3.504c1.504-2.624,3.888-3.936,7.152-3.936c2.047,0,3.808,0.624,5.279,1.872s2.208,3.2,2.208,5.856v10.32h3.216
		V283.172z"/>
	<path d="M1126.052,276.74c0,2.24-0.92,3.953-2.76,5.136c-1.841,1.184-4.185,1.776-7.032,1.776c-1.536,0-3.08-0.176-4.632-0.528
		c-1.553-0.352-2.952-0.88-4.2-1.584l0.768-5.568l4.032,0.384l-0.048,2.784c0.607,0.257,1.256,0.432,1.944,0.528
		c0.688,0.096,1.304,0.144,1.848,0.144c1.312,0,2.456-0.232,3.432-0.696c0.977-0.463,1.465-1.159,1.465-2.088
		c0-0.896-0.44-1.536-1.32-1.92c-0.881-0.384-1.977-0.68-3.288-0.888c-1.313-0.208-2.624-0.496-3.936-0.864
		c-1.313-0.368-2.409-0.976-3.288-1.824c-0.881-0.847-1.32-2.119-1.32-3.816c0-2.496,0.952-4.208,2.855-5.136
		c1.904-0.928,3.912-1.392,6.024-1.392c2.784,0,5.407,0.656,7.872,1.968l0.528,5.328l-4.032,0.48l-0.432-3.216
		c-1.248-0.48-2.513-0.72-3.792-0.72c-0.993,0-1.833,0.2-2.521,0.6c-0.688,0.4-1.032,1.032-1.032,1.896
		c0,0.896,0.433,1.52,1.296,1.872c0.864,0.353,1.937,0.632,3.217,0.84c1.279,0.208,2.56,0.497,3.84,0.864
		c1.279,0.368,2.352,0.976,3.216,1.824C1125.62,273.773,1126.052,275.044,1126.052,276.74z"/>
	<path d="M1140.594,283.172h-11.52v-3.936h3.216v-13.632h-3.408v-3.984h8.496v17.616h3.216V283.172z M1132.002,257.156v-5.664h5.232
		v5.664H1132.002z"/>
	<path d="M1169.106,283.172h-11.52v-3.936h3.168v-8.448c0-2.048-0.368-3.496-1.104-4.344c-0.736-0.848-1.76-1.272-3.071-1.272
		c-1.632,0-2.921,0.528-3.864,1.584c-0.944,1.056-1.433,2.352-1.464,3.888v8.592h3.216v3.936h-11.568v-3.936h3.217v-13.632h-3.36
		v-3.984h8.496v3.504c1.504-2.624,3.888-3.936,7.152-3.936c2.047,0,3.808,0.624,5.279,1.872s2.208,3.2,2.208,5.856v10.32h3.216
		V283.172z"/>
	<path d="M1193.299,272.42c0,3.36-1.064,6.072-3.192,8.136c-2.128,2.064-4.888,3.096-8.279,3.096c-3.297,0-5.945-0.992-7.944-2.976
		c-2-1.984-3-4.672-3-8.064c0-3.136,0.943-5.832,2.832-8.088c1.888-2.256,4.688-3.384,8.4-3.384c3.743,0,6.543,1.121,8.399,3.36
		C1192.37,266.741,1193.299,269.38,1193.299,272.42z M1187.971,272.276c0-2.304-0.552-4.063-1.656-5.28
		c-1.104-1.216-2.536-1.824-4.296-1.824c-1.824,0-3.248,0.648-4.271,1.944c-1.024,1.296-1.536,3.032-1.536,5.208
		c0,2.048,0.487,3.776,1.464,5.184c0.976,1.409,2.424,2.112,4.344,2.112c1.855,0,3.313-0.68,4.368-2.04
		C1187.443,276.221,1187.971,274.453,1187.971,272.276z"/>
	<path d="M1228.819,274.004c0,3.104-1.08,5.488-3.24,7.152c-2.16,1.665-5.016,2.496-8.568,2.496c-2.111,0-4.151-0.256-6.119-0.768
		c-1.969-0.511-3.528-1.248-4.681-2.208l0.864-7.152l4.271,0.432l-0.096,3.84c1.057,0.544,2.023,0.888,2.904,1.032
		c0.88,0.144,1.704,0.216,2.472,0.216c1.855,0,3.4-0.295,4.632-0.888c1.231-0.592,1.849-1.783,1.849-3.576
		c0-1.952-0.704-3.256-2.112-3.912c-1.408-0.656-3.024-1.16-4.848-1.512c-1.473-0.288-2.961-0.672-4.464-1.152
		c-1.505-0.48-2.753-1.279-3.744-2.4c-0.992-1.12-1.488-2.768-1.488-4.944c0-3.264,1.111-5.607,3.336-7.032
		c2.224-1.423,4.712-2.136,7.464-2.136c1.92,0,3.784,0.288,5.592,0.864c1.808,0.576,3.224,1.328,4.248,2.256l0.288,6.576
		l-4.271,0.384l-0.433-4.032c-0.896-0.512-1.792-0.864-2.688-1.056c-0.896-0.192-1.761-0.288-2.592-0.288
		c-1.505,0-2.753,0.305-3.744,0.912c-0.992,0.608-1.488,1.584-1.488,2.928c0,1.568,0.616,2.633,1.848,3.192
		c1.231,0.56,2.616,1.016,4.152,1.368c1.312,0.288,2.8,0.672,4.464,1.152s3.112,1.336,4.344,2.568
		C1228.202,269.549,1228.819,271.445,1228.819,274.004z"/>
	<path d="M1252.241,276.596c-0.192,1.889-1.121,3.537-2.784,4.944c-1.664,1.408-3.952,2.112-6.864,2.112
		c-3.137,0-5.712-0.919-7.728-2.76c-2.017-1.84-3.024-4.552-3.024-8.136c0-3.295,0.92-6.048,2.76-8.256s4.408-3.312,7.704-3.312
		c2.977,0,5.336,0.888,7.08,2.664c1.744,1.776,2.632,4.024,2.664,6.744c0,0.896-0.096,1.856-0.288,2.88h-14.544
		c0.288,4.032,2.208,6.048,5.76,6.048c1.664,0,2.856-0.4,3.576-1.2c0.72-0.799,1.192-1.647,1.416-2.544L1252.241,276.596z
		 M1246.769,270.309c0.128-1.28-0.168-2.488-0.888-3.624c-0.72-1.136-1.928-1.704-3.624-1.704c-1.536,0-2.704,0.512-3.504,1.536
		c-0.8,1.024-1.296,2.288-1.488,3.792H1246.769z"/>
	<path d="M1274.85,275.444c-0.225,1.92-1.073,3.768-2.544,5.544c-1.473,1.776-3.841,2.664-7.104,2.664
		c-3.072,0-5.576-0.928-7.512-2.784c-1.937-1.855-2.904-4.56-2.904-8.112c0-3.487,1-6.288,3-8.4c2-2.112,4.615-3.168,7.848-3.168
		c1.28,0,2.561,0.16,3.841,0.48c1.279,0.32,2.544,0.848,3.792,1.584l0.863,6.048l-4.128,0.432l-0.72-3.552
		c-1.185-0.576-2.433-0.864-3.744-0.864c-3.584,0-5.376,2.4-5.376,7.2c0,4.672,1.84,7.008,5.521,7.008
		c2.688,0,4.303-1.632,4.848-4.896L1274.85,275.444z"/>
	<path d="M1302.833,283.172h-8.496v-3.6c-1.408,2.688-3.776,4.032-7.104,4.032c-2.049,0-3.816-0.616-5.304-1.848
		c-1.488-1.231-2.232-3.192-2.232-5.88v-10.32h-3.216v-3.936h8.352v12.384c0,2.048,0.368,3.497,1.104,4.344
		c0.735,0.849,1.775,1.272,3.12,1.272c1.6,0,2.871-0.56,3.815-1.68c0.943-1.12,1.432-2.448,1.464-3.984v-8.4h-3.84v-3.936h8.977
		v17.616h3.359V283.172z M1296.978,253.94l-8.977,4.656l-1.392-2.064l7.632-6.624L1296.978,253.94z"/>
	<path d="M1331.153,283.172h-11.52v-3.936h3.168v-8.448c0-2.048-0.368-3.496-1.104-4.344c-0.736-0.848-1.76-1.272-3.071-1.272
		c-1.632,0-2.921,0.528-3.864,1.584c-0.944,1.056-1.433,2.352-1.464,3.888v8.592h3.216v3.936h-11.568v-3.936h3.217v-13.632h-3.36
		v-3.984h8.496v3.504c1.504-2.624,3.888-3.936,7.152-3.936c2.047,0,3.808,0.624,5.279,1.872s2.208,3.2,2.208,5.856v10.32h3.216
		V283.172z"/>
	<path d="M1357.985,283.172h-8.304v-4.128c-0.641,1.248-1.56,2.328-2.76,3.24c-1.2,0.912-2.776,1.368-4.729,1.368
		c-2.816,0-5.048-0.96-6.695-2.88c-1.648-1.92-2.473-4.56-2.473-7.92c0-3.072,0.775-5.784,2.328-8.136
		c1.552-2.352,3.991-3.528,7.32-3.528c1.695,0,3.127,0.344,4.296,1.032c1.168,0.688,2.071,1.608,2.712,2.76v-10.896h-4.656v-3.936
		h9.792v29.088h3.168V283.172z M1349.681,272.804v-1.632c-0.032-1.792-0.576-3.216-1.632-4.272
		c-1.057-1.056-2.353-1.584-3.888-1.584c-1.729,0-3.129,0.648-4.2,1.944c-1.073,1.296-1.608,3.064-1.608,5.304
		c0,2.272,0.535,4,1.608,5.184c1.071,1.184,2.359,1.776,3.863,1.776c1.76,0,3.168-0.72,4.225-2.16
		C1349.105,275.924,1349.649,274.405,1349.681,272.804z"/>
	<path d="M1362.16,263.205c1.6-0.768,3.024-1.296,4.272-1.584c1.248-0.288,2.688-0.432,4.319-0.432c2.4,0,4.376,0.608,5.929,1.824
		c1.552,1.217,2.327,3.041,2.327,5.472v9.696c0,1.28,0.528,1.92,1.584,1.92c0.288,0,0.656-0.064,1.104-0.192l0.048,2.832
		c-1.056,0.607-2.208,0.912-3.456,0.912c-2.72,0-4.192-1.423-4.416-4.272v-0.096c-0.641,1.121-1.544,2.129-2.712,3.024
		s-2.616,1.344-4.344,1.344c-1.505,0-2.984-0.456-4.44-1.368c-1.456-0.912-2.184-2.503-2.184-4.776c0-2.656,1.056-4.408,3.168-5.256
		c2.112-0.848,4.399-1.272,6.864-1.272c0.607,0,1.231,0.017,1.872,0.048c0.64,0.032,1.231,0.08,1.775,0.144v-1.2
		c0-1.279-0.224-2.431-0.672-3.456c-0.448-1.024-1.568-1.536-3.36-1.536c-0.672,0-1.304,0.048-1.896,0.144
		c-0.593,0.096-1.16,0.288-1.704,0.576l-0.864,3.312l-4.128-0.432L1362.16,263.205z M1373.872,274.628v-0.768
		c-0.544-0.064-1.104-0.127-1.68-0.192c-0.576-0.064-1.169-0.096-1.776-0.096c-1.28,0-2.424,0.224-3.432,0.672
		c-1.008,0.449-1.512,1.344-1.512,2.688c0,1.953,1.039,2.928,3.119,2.928c1.216,0,2.368-0.439,3.456-1.32
		C1373.136,277.661,1373.744,276.357,1373.872,274.628z"/>
	<path d="M1397.056,261.284c1.44,0,2.784,0.401,4.032,1.2l0.912,6.72l-3.984,0.48l-0.815-3.696c-0.641-0.319-1.185-0.48-1.633-0.48
		c-0.896,0-1.672,0.368-2.328,1.104c-0.656,0.736-0.983,1.76-0.983,3.072v9.552h4.271v3.936h-12.624v-3.936h3.217v-13.632h-3.36
		v-3.984h8.112v4.032c0.384-1.216,0.999-2.248,1.848-3.096C1394.568,261.709,1395.68,261.284,1397.056,261.284z"/>
	<path d="M1416.4,283.172h-11.52v-3.936h3.216v-13.632h-3.408v-3.984h8.496v17.616h3.216V283.172z M1407.808,257.156v-5.664h5.232
		v5.664H1407.808z"/>
	<path d="M1440.976,272.42c0,3.36-1.064,6.072-3.192,8.136c-2.128,2.064-4.888,3.096-8.279,3.096c-3.297,0-5.945-0.992-7.944-2.976
		c-2-1.984-3-4.672-3-8.064c0-3.136,0.943-5.832,2.832-8.088c1.888-2.256,4.688-3.384,8.4-3.384c3.743,0,6.543,1.121,8.399,3.36
		C1440.047,266.741,1440.976,269.38,1440.976,272.42z M1435.648,272.276c0-2.304-0.552-4.063-1.656-5.28
		c-1.104-1.216-2.536-1.824-4.296-1.824c-1.824,0-3.248,0.648-4.271,1.944c-1.024,1.296-1.536,3.032-1.536,5.208
		c0,2.048,0.487,3.776,1.464,5.184c0.976,1.409,2.424,2.112,4.344,2.112c1.855,0,3.313-0.68,4.368-2.04
		C1435.119,276.221,1435.648,274.453,1435.648,272.276z"/>
</g>
</svg>
