<svg x="0" y="0" width="700" height="350" viewBox="0 0 700 350" xmlns="http://www.w3.org/2000/svg" xmlns:xlink="http://www.w3.org/1999/xlink" xmlns:fi="http://pattern.flaticon.com/"><rect x="0px" y="0px" width="100%" height="100%" opacity="1" fill="#ffffff"/><defs><g transform="matrix(0.19148936867713928 0 0 0.19148936867713928 303 267)" id="L1_137"><path d="M61.782,375h346.437V15H61.782V375z M76.782,37.5c0-4.142,3.358-7.5,7.5-7.5h301.437   c4.142,0,7.5,3.358,7.5,7.5v315c0,4.142-3.358,7.5-7.5,7.5H84.282c-4.142,0-7.5-3.358-7.5-7.5V37.5z" fill="#f2ebd9"/><path d="M119.492,328.449c-0.053-0.041-0.109-0.075-0.161-0.118c-3.22-2.605-3.719-7.327-1.114-10.548   C146.892,282.332,189.458,262,235,262s88.108,20.332,116.784,55.783c2.605,3.221,2.106,7.943-1.114,10.548   c-0.053,0.043-0.113,0.072-0.168,0.113c3.818,5.26,7.284,10.789,10.367,16.556h17.349V45H91.782v300h17.348   C112.211,339.235,115.676,333.707,119.492,328.449z M235,70c48.799,0,88.5,39.701,88.5,88.5S283.799,247,235,247   s-88.5-39.701-88.5-88.5S186.201,70,235,70z" fill="#98d9d5"/><path d="M190.864,329.898c-0.417,0.069-0.833,0.103-1.243,0.103c-3.6,0-6.777-2.599-7.389-6.267   c-0.485-2.91-0.731-5.892-0.731-8.864v-26.874c-19.849,8.55-37.586,21.868-51.622,39.22c-2.563,3.168-7.172,3.695-10.386,1.232   c-3.816,5.258-7.28,10.786-10.362,16.551h91.126c-3.838-4.42-6.836-9.581-8.771-15.238   C191.28,329.814,191.075,329.863,190.864,329.898z" fill="#6da8d6"/><path d="M345.958,330c-2.186,0-4.354-0.952-5.835-2.784c-14.036-17.353-31.773-30.669-51.622-39.22v26.874   c0,2.97-0.247,5.952-0.732,8.864c-0.612,3.668-3.79,6.267-7.389,6.267c-0.41,0-0.825-0.034-1.243-0.103   c-0.211-0.035-0.417-0.084-0.62-0.136c-1.936,5.657-4.934,10.818-8.771,15.238h91.125c-3.083-5.767-6.549-11.296-10.367-16.556   C349.147,329.481,347.55,330,345.958,330z" fill="#6da8d6"/><path d="M272.973,321.266c0.35-2.098,0.528-4.25,0.528-6.395v-32.304c-9.994-2.958-20.384-4.779-31-5.36   v2.293c0,4.142-3.358,7.5-7.5,7.5s-7.5-3.358-7.5-7.5v-2.293c-10.617,0.581-21.006,2.402-31,5.36v32.304   c0,2.147,0.177,4.299,0.527,6.395c0.646,3.874-1.804,7.545-5.543,8.496c1.936,5.657,4.934,10.818,8.771,15.238h69.489   c3.838-4.42,6.836-9.581,8.771-15.238C274.777,328.811,272.326,325.14,272.973,321.266z M242.5,322.5c0,4.142-3.358,7.5-7.5,7.5   s-7.5-3.358-7.5-7.5v-13c0-4.142,3.358-7.5,7.5-7.5s7.5,3.358,7.5,7.5V322.5z" fill="#ffffff"/><path d="M235,232c40.528,0,73.5-32.972,73.5-73.5S275.528,85,235,85s-73.5,32.972-73.5,73.5   S194.472,232,235,232z M216.096,156.433c3.902-1.385,8.191,0.652,9.579,4.555c1.399,3.936,5.146,6.58,9.325,6.58   c4.178,0,7.926-2.645,9.325-6.581c1.388-3.903,5.677-5.94,9.579-4.555c3.903,1.388,5.942,5.676,4.555,9.579   c-3.521,9.903-12.948,16.556-23.459,16.556c-10.512,0-19.939-6.653-23.459-16.557C210.154,162.109,212.193,157.82,216.096,156.433z   " fill="#f2ebd9"/><path d="M415.718,415H54.282c-4.142,0-7.5,3.358-7.5,7.5s3.358,7.5,7.5,7.5h361.437   c4.142,0,7.5-3.358,7.5-7.5S419.86,415,415.718,415z" fill="#082947"/><path d="M235,455H54.282c-4.142,0-7.5,3.358-7.5,7.5s3.358,7.5,7.5,7.5H235c4.142,0,7.5-3.358,7.5-7.5   S239.142,455,235,455z" fill="#082947"/><path d="M235,247c48.799,0,88.5-39.701,88.5-88.5S283.799,70,235,70s-88.5,39.701-88.5,88.5   S186.201,247,235,247z M235,85c40.528,0,73.5,32.972,73.5,73.5S275.528,232,235,232s-73.5-32.972-73.5-73.5S194.472,85,235,85z" fill="#082947"/><path d="M129.878,327.217c14.036-17.353,31.773-30.67,51.622-39.22v26.874c0,2.972,0.246,5.954,0.731,8.864   c0.612,3.668,3.79,6.267,7.389,6.267c0.41,0,0.826-0.034,1.243-0.103c0.211-0.035,0.417-0.084,0.62-0.136   c3.739-0.951,6.19-4.622,5.543-8.496c-0.35-2.096-0.527-4.248-0.527-6.395v-32.304c9.994-2.958,20.383-4.779,31-5.36v2.293   c0,4.142,3.358,7.5,7.5,7.5s7.5-3.358,7.5-7.5v-2.293c10.617,0.581,21.007,2.402,31,5.36v32.304c0,2.146-0.178,4.297-0.528,6.395   c-0.646,3.874,1.804,7.545,5.543,8.496c0.204,0.052,0.409,0.101,0.62,0.136c0.418,0.069,0.833,0.103,1.243,0.103   c3.6,0,6.777-2.599,7.389-6.267c0.485-2.912,0.732-5.894,0.732-8.864v-26.874c19.849,8.551,37.585,21.867,51.622,39.22   c1.482,1.832,3.649,2.784,5.835,2.784c1.593,0,3.19-0.519,4.545-1.556c0.054-0.042,0.114-0.07,0.168-0.113   c3.22-2.605,3.719-7.327,1.114-10.548C323.108,282.332,280.542,262,235,262s-88.108,20.332-116.784,55.783   c-2.605,3.221-2.106,7.943,1.114,10.548c0.052,0.042,0.108,0.077,0.161,0.118C122.706,330.912,127.315,330.385,129.878,327.217z" fill="#082947"/><path d="M235,182.568c10.511,0,19.938-6.653,23.459-16.556c1.387-3.903-0.652-8.191-4.555-9.579   c-3.902-1.386-8.191,0.651-9.579,4.555c-1.399,3.936-5.147,6.581-9.325,6.581c-4.179,0-7.926-2.645-9.325-6.58   c-1.387-3.903-5.676-5.94-9.579-4.555c-3.903,1.387-5.942,5.676-4.555,9.579C215.061,175.915,224.488,182.568,235,182.568z" fill="#082947"/><path d="M415.718,0H54.282c-4.142,0-7.5,3.358-7.5,7.5v375c0,4.142,3.358,7.5,7.5,7.5h361.437   c4.142,0,7.5-3.358,7.5-7.5V7.5C423.218,3.358,419.86,0,415.718,0z M408.218,375H61.782V15h346.437V375z" fill="#082947"/><path d="M84.282,360h301.437c4.142,0,7.5-3.358,7.5-7.5v-315c0-4.142-3.358-7.5-7.5-7.5H84.282   c-4.142,0-7.5,3.358-7.5,7.5v315C76.782,356.642,80.14,360,84.282,360z M91.782,45h286.437v300H91.782V45z" fill="#082947"/><path d="M235,302c-4.142,0-7.5,3.358-7.5,7.5v13c0,4.142,3.358,7.5,7.5,7.5s7.5-3.358,7.5-7.5v-13   C242.5,305.358,239.142,302,235,302z" fill="#082947"/></g><path d="M165,0C74.019,0,0,74.019,0,165s74.019,165,165,165c90.982,0,165-74.019,165-165S255.982,0,165,0z" transform="matrix(0.03030303120613098 0 0 0.03030303120613098 345 82.5)" id="L1_144" fill="#1d2f2a"/><g transform="matrix(-0.12765957415103912 0 0 0.12765957415103912 117.5001220703125 57.5)" id="L1_139"><path d="M61.782,375h346.437V15H61.782V375z M76.782,37.5c0-4.142,3.358-7.5,7.5-7.5h301.437   c4.142,0,7.5,3.358,7.5,7.5v315c0,4.142-3.358,7.5-7.5,7.5H84.282c-4.142,0-7.5-3.358-7.5-7.5V37.5z" fill="#f2ebd9"/><path d="M119.492,328.449c-0.053-0.041-0.109-0.075-0.161-0.118c-3.22-2.605-3.719-7.327-1.114-10.548   C146.892,282.332,189.458,262,235,262s88.108,20.332,116.784,55.783c2.605,3.221,2.106,7.943-1.114,10.548   c-0.053,0.043-0.113,0.072-0.168,0.113c3.818,5.26,7.284,10.789,10.367,16.556h17.349V45H91.782v300h17.348   C112.211,339.235,115.676,333.707,119.492,328.449z M235,70c48.799,0,88.5,39.701,88.5,88.5S283.799,247,235,247   s-88.5-39.701-88.5-88.5S186.201,70,235,70z" fill="#98d9d5"/><path d="M190.864,329.898c-0.417,0.069-0.833,0.103-1.243,0.103c-3.6,0-6.777-2.599-7.389-6.267   c-0.485-2.91-0.731-5.892-0.731-8.864v-26.874c-19.849,8.55-37.586,21.868-51.622,39.22c-2.563,3.168-7.172,3.695-10.386,1.232   c-3.816,5.258-7.28,10.786-10.362,16.551h91.126c-3.838-4.42-6.836-9.581-8.771-15.238   C191.28,329.814,191.075,329.863,190.864,329.898z" fill="#6da8d6"/><path d="M345.958,330c-2.186,0-4.354-0.952-5.835-2.784c-14.036-17.353-31.773-30.669-51.622-39.22v26.874   c0,2.97-0.247,5.952-0.732,8.864c-0.612,3.668-3.79,6.267-7.389,6.267c-0.41,0-0.825-0.034-1.243-0.103   c-0.211-0.035-0.417-0.084-0.62-0.136c-1.936,5.657-4.934,10.818-8.771,15.238h91.125c-3.083-5.767-6.549-11.296-10.367-16.556   C349.147,329.481,347.55,330,345.958,330z" fill="#6da8d6"/><path d="M272.973,321.266c0.35-2.098,0.528-4.25,0.528-6.395v-32.304c-9.994-2.958-20.384-4.779-31-5.36   v2.293c0,4.142-3.358,7.5-7.5,7.5s-7.5-3.358-7.5-7.5v-2.293c-10.617,0.581-21.006,2.402-31,5.36v32.304   c0,2.147,0.177,4.299,0.527,6.395c0.646,3.874-1.804,7.545-5.543,8.496c1.936,5.657,4.934,10.818,8.771,15.238h69.489   c3.838-4.42,6.836-9.581,8.771-15.238C274.777,328.811,272.326,325.14,272.973,321.266z M242.5,322.5c0,4.142-3.358,7.5-7.5,7.5   s-7.5-3.358-7.5-7.5v-13c0-4.142,3.358-7.5,7.5-7.5s7.5,3.358,7.5,7.5V322.5z" fill="#ffffff"/><path d="M235,232c40.528,0,73.5-32.972,73.5-73.5S275.528,85,235,85s-73.5,32.972-73.5,73.5   S194.472,232,235,232z M216.096,156.433c3.902-1.385,8.191,0.652,9.579,4.555c1.399,3.936,5.146,6.58,9.325,6.58   c4.178,0,7.926-2.645,9.325-6.581c1.388-3.903,5.677-5.94,9.579-4.555c3.903,1.388,5.942,5.676,4.555,9.579   c-3.521,9.903-12.948,16.556-23.459,16.556c-10.512,0-19.939-6.653-23.459-16.557C210.154,162.109,212.193,157.82,216.096,156.433z   " fill="#f2ebd9"/><path d="M415.718,415H54.282c-4.142,0-7.5,3.358-7.5,7.5s3.358,7.5,7.5,7.5h361.437   c4.142,0,7.5-3.358,7.5-7.5S419.86,415,415.718,415z" fill="#082947"/><path d="M235,455H54.282c-4.142,0-7.5,3.358-7.5,7.5s3.358,7.5,7.5,7.5H235c4.142,0,7.5-3.358,7.5-7.5   S239.142,455,235,455z" fill="#082947"/><path d="M235,247c48.799,0,88.5-39.701,88.5-88.5S283.799,70,235,70s-88.5,39.701-88.5,88.5   S186.201,247,235,247z M235,85c40.528,0,73.5,32.972,73.5,73.5S275.528,232,235,232s-73.5-32.972-73.5-73.5S194.472,85,235,85z" fill="#082947"/><path d="M129.878,327.217c14.036-17.353,31.773-30.67,51.622-39.22v26.874c0,2.972,0.246,5.954,0.731,8.864   c0.612,3.668,3.79,6.267,7.389,6.267c0.41,0,0.826-0.034,1.243-0.103c0.211-0.035,0.417-0.084,0.62-0.136   c3.739-0.951,6.19-4.622,5.543-8.496c-0.35-2.096-0.527-4.248-0.527-6.395v-32.304c9.994-2.958,20.383-4.779,31-5.36v2.293   c0,4.142,3.358,7.5,7.5,7.5s7.5-3.358,7.5-7.5v-2.293c10.617,0.581,21.007,2.402,31,5.36v32.304c0,2.146-0.178,4.297-0.528,6.395   c-0.646,3.874,1.804,7.545,5.543,8.496c0.204,0.052,0.409,0.101,0.62,0.136c0.418,0.069,0.833,0.103,1.243,0.103   c3.6,0,6.777-2.599,7.389-6.267c0.485-2.912,0.732-5.894,0.732-8.864v-26.874c19.849,8.551,37.585,21.867,51.622,39.22   c1.482,1.832,3.649,2.784,5.835,2.784c1.593,0,3.19-0.519,4.545-1.556c0.054-0.042,0.114-0.07,0.168-0.113   c3.22-2.605,3.719-7.327,1.114-10.548C323.108,282.332,280.542,262,235,262s-88.108,20.332-116.784,55.783   c-2.605,3.221-2.106,7.943,1.114,10.548c0.052,0.042,0.108,0.077,0.161,0.118C122.706,330.912,127.315,330.385,129.878,327.217z" fill="#082947"/><path d="M235,182.568c10.511,0,19.938-6.653,23.459-16.556c1.387-3.903-0.652-8.191-4.555-9.579   c-3.902-1.386-8.191,0.651-9.579,4.555c-1.399,3.936-5.147,6.581-9.325,6.581c-4.179,0-7.926-2.645-9.325-6.58   c-1.387-3.903-5.676-5.94-9.579-4.555c-3.903,1.387-5.942,5.676-4.555,9.579C215.061,175.915,224.488,182.568,235,182.568z" fill="#082947"/><path d="M415.718,0H54.282c-4.142,0-7.5,3.358-7.5,7.5v375c0,4.142,3.358,7.5,7.5,7.5h361.437   c4.142,0,7.5-3.358,7.5-7.5V7.5C423.218,3.358,419.86,0,415.718,0z M408.218,375H61.782V15h346.437V375z" fill="#082947"/><path d="M84.282,360h301.437c4.142,0,7.5-3.358,7.5-7.5v-315c0-4.142-3.358-7.5-7.5-7.5H84.282   c-4.142,0-7.5,3.358-7.5,7.5v315C76.782,356.642,80.14,360,84.282,360z M91.782,45h286.437v300H91.782V45z" fill="#082947"/><path d="M235,302c-4.142,0-7.5,3.358-7.5,7.5v13c0,4.142,3.358,7.5,7.5,7.5s7.5-3.358,7.5-7.5v-13   C242.5,305.358,239.142,302,235,302z" fill="#082947"/></g><g transform="matrix(0.0853351503610611 0 0 0.0853351503610611 242.5 67.5)" id="L1_140"><path d="M196.87,424.495h75v-34.404c0-4.142,3.357-7.5,7.5-7.5v-15h-82.5V424.495z" fill="#f2ebd9"/><path d="M453.74,302.385H15v27.707c0,12.407,10.094,22.5,22.5,22.5h393.74c12.406,0,22.5-10.093,22.5-22.5   V302.385z" fill="#98d9d5"/><path d="M309.37,232.385c-4.143,0-7.5-3.358-7.5-7.5v-19.896c0-0.02,0.003-0.04,0.003-0.059   c0.001-0.109,0.01-0.217,0.016-0.325c0.008-0.158,0.017-0.315,0.035-0.471c0.089-0.726,0.259-1.394,0.523-2.029l23.878-57.309   c0.009-0.021,0.017-0.042,0.026-0.063l17.03-40.873c1.164-2.794,3.896-4.615,6.923-4.615s5.759,1.82,6.923,4.615l17.027,40.863   c0.012,0.028,0.024,0.056,0.035,0.085l23.874,57.296c0.265,0.635,0.434,1.303,0.516,1.983c0.025,0.202,0.034,0.36,0.042,0.517   c0.006,0.108,0.015,0.217,0.016,0.325c0,0.02,0.003,0.04,0.003,0.059v19.896c0,4.142-3.357,7.5-7.5,7.5l0,15h22.5V84.245H286.87   v163.14h22.5V232.385z" fill="#f2ebd9"/><path d="M15,287.385h438.74V66.745c0-12.407-10.094-22.5-22.5-22.5H37.5c-12.406,0-22.5,10.093-22.5,22.5   V287.385z M271.87,76.745c0-4.142,3.357-7.5,7.5-7.5h141.87c4.143,0,7.5,3.358,7.5,7.5v178.14c0,4.142-3.357,7.5-7.5,7.5H279.37   c-4.143,0-7.5-3.358-7.5-7.5V76.745z M47.5,69.245H240c4.143,0,7.5,3.358,7.5,7.5s-3.357,7.5-7.5,7.5H47.5   c-4.143,0-7.5-3.358-7.5-7.5S43.357,69.245,47.5,69.245z M47.5,104.873H240c4.143,0,7.5,3.358,7.5,7.5s-3.357,7.5-7.5,7.5H47.5   c-4.143,0-7.5-3.358-7.5-7.5S43.357,104.873,47.5,104.873z M47.5,140.501h96.25c4.143,0,7.5,3.358,7.5,7.5s-3.357,7.5-7.5,7.5H47.5   c-4.143,0-7.5-3.358-7.5-7.5S43.357,140.501,47.5,140.501z M47.5,176.129H240c4.143,0,7.5,3.358,7.5,7.5s-3.357,7.5-7.5,7.5H47.5   c-4.143,0-7.5-3.358-7.5-7.5S43.357,176.129,47.5,176.129z M47.5,211.757H240c4.143,0,7.5,3.358,7.5,7.5s-3.357,7.5-7.5,7.5H47.5   c-4.143,0-7.5-3.358-7.5-7.5S43.357,211.757,47.5,211.757z M47.5,247.385h96.25c4.143,0,7.5,3.358,7.5,7.5s-3.357,7.5-7.5,7.5H47.5   c-4.143,0-7.5-3.358-7.5-7.5S43.357,247.385,47.5,247.385z" fill="#ffffff"/><path d="M431.24,29.245H37.5c-20.678,0-37.5,16.822-37.5,37.5v263.346c0,20.678,16.822,37.5,37.5,37.5   h144.37v56.904h-32.5c-4.143,0-7.5,3.358-7.5,7.5s3.357,7.5,7.5,7.5h170c4.143,0,7.5-3.358,7.5-7.5s-3.357-7.5-7.5-7.5h-32.5   v-34.404c0-4.142-3.357-7.5-7.5-7.5s-7.5,3.358-7.5,7.5v34.404h-75v-56.904h234.37c20.678,0,37.5-16.822,37.5-37.5V66.745   C468.74,46.067,451.918,29.245,431.24,29.245z M431.24,352.591H37.5c-12.406,0-22.5-10.093-22.5-22.5v-27.707h438.74v27.707   C453.74,342.498,443.646,352.591,431.24,352.591z M37.5,44.245h393.74c12.406,0,22.5,10.093,22.5,22.5v220.64H15V66.745   C15,54.338,25.094,44.245,37.5,44.245z" fill="#082947"/><path d="M47.5,84.245H240c4.143,0,7.5-3.358,7.5-7.5s-3.357-7.5-7.5-7.5H47.5c-4.143,0-7.5,3.358-7.5,7.5   S43.357,84.245,47.5,84.245z" fill="#082947"/><path d="M47.5,119.873H240c4.143,0,7.5-3.358,7.5-7.5s-3.357-7.5-7.5-7.5H47.5c-4.143,0-7.5,3.358-7.5,7.5   S43.357,119.873,47.5,119.873z" fill="#082947"/><path d="M47.5,155.501h96.25c4.143,0,7.5-3.358,7.5-7.5s-3.357-7.5-7.5-7.5H47.5c-4.143,0-7.5,3.358-7.5,7.5   S43.357,155.501,47.5,155.501z" fill="#082947"/><path d="M47.5,191.129H240c4.143,0,7.5-3.358,7.5-7.5s-3.357-7.5-7.5-7.5H47.5c-4.143,0-7.5,3.358-7.5,7.5   S43.357,191.129,47.5,191.129z" fill="#082947"/><path d="M47.5,226.757H240c4.143,0,7.5-3.358,7.5-7.5s-3.357-7.5-7.5-7.5H47.5c-4.143,0-7.5,3.358-7.5,7.5   S43.357,226.757,47.5,226.757z" fill="#082947"/><path d="M47.5,262.385h96.25c4.143,0,7.5-3.358,7.5-7.5s-3.357-7.5-7.5-7.5H47.5c-4.143,0-7.5,3.358-7.5,7.5   S43.357,262.385,47.5,262.385z" fill="#082947"/><path d="M383.74,224.885v-9.054c-2.746,0.589-5.566,0.906-8.419,0.906c-6.234,0-12.222-1.427-17.517-4.039   v12.188c0,4.142-3.357,7.5-7.5,7.5s-7.5-3.358-7.5-7.5v-12.187c-5.295,2.611-11.281,4.038-17.516,4.038   c-2.853,0-5.673-0.317-8.419-0.906v9.054c0,4.142-3.357,7.5-7.5,7.5v15h81.87v-15C387.098,232.385,383.74,229.027,383.74,224.885z" fill="#98d9d5"/><path d="M344.499,140.18 356.111,140.18 350.305,126.245z" fill="#98d9d5"/><path d="M381.444,200.977l-19.083-45.797h-24.113l-19.082,45.797c1.977,0.497,4.033,0.759,6.122,0.759   c7.763,0,14.818-3.454,18.874-9.239c1.404-2.002,3.696-3.195,6.142-3.195s4.737,1.192,6.141,3.194   c4.057,5.786,11.113,9.24,18.876,9.24C377.411,201.736,379.467,201.474,381.444,200.977z" fill="#ffcc75"/><path d="M316.87,224.885v-9.054c2.746,0.589,5.566,0.906,8.419,0.906c6.234,0,12.221-1.427,17.516-4.038   v12.187c0,4.142,3.357,7.5,7.5,7.5s7.5-3.358,7.5-7.5v-12.188c5.295,2.611,11.282,4.039,17.517,4.039   c2.853,0,5.673-0.317,8.419-0.906v9.054c0,4.142,3.357,7.5,7.5,7.5c4.143,0,7.5-3.358,7.5-7.5v-19.896   c0-0.02-0.003-0.04-0.003-0.059c-0.001-0.109-0.01-0.217-0.016-0.325c-0.008-0.158-0.017-0.315-0.035-0.471   c-0.089-0.726-0.259-1.394-0.523-2.029l-23.874-57.296c-0.012-0.028-0.023-0.056-0.035-0.085l-17.027-40.863   c-1.164-2.795-3.896-4.615-6.923-4.615s-5.759,1.821-6.923,4.615l-17.03,40.873c-0.009,0.021-0.017,0.042-0.026,0.063   l-23.878,57.309c-0.265,0.635-0.434,1.303-0.516,1.983c-0.025,0.202-0.034,0.36-0.042,0.517c-0.006,0.108-0.015,0.217-0.016,0.325   c0,0.02-0.003,0.04-0.003,0.059v19.896c0,4.142,3.357,7.5,7.5,7.5S316.87,229.027,316.87,224.885z M356.445,192.496   c-1.403-2.002-3.695-3.194-6.141-3.194s-4.737,1.192-6.142,3.195c-4.056,5.785-11.111,9.239-18.874,9.239   c-2.089,0-4.146-0.261-6.122-0.759l19.082-45.797h24.113l19.083,45.797c-1.977,0.497-4.033,0.759-6.122,0.759   C367.559,201.736,360.502,198.282,356.445,192.496z M344.499,140.18l5.806-13.935l5.806,13.935H344.499z" fill="#082947"/><path d="M279.37,262.385h141.87c4.143,0,7.5-3.358,7.5-7.5V76.745c0-4.142-3.357-7.5-7.5-7.5H279.37   c-4.143,0-7.5,3.358-7.5,7.5v178.14C271.87,259.027,275.228,262.385,279.37,262.385z M286.87,84.245h126.87v163.14H286.87V84.245z" fill="#082947"/></g><g transform="matrix(0.042553190141916275 0 0 0.042553190141916275 340 165)" id="L1_141"><rect x="325px" y="343px" width="60px" height="25px" fill="#ffffff"/><path d="M40.607,86.475 429.393,86.475 444.393,71.475 25.607,71.475z" fill="#f2ebd9"/><path d="M310,368.525 310,353.525 40.607,353.525 25.607,368.525z" fill="#f2ebd9"/><path d="M429.393,353.525 400,353.525 400,368.525 444.393,368.525z" fill="#f2ebd9"/><path d="M30,342.918 30,97.082 15,82.082 15,357.918z" fill="#ffcc75"/><path d="M440,97.082 440,342.918 455,357.918 455,82.082z" fill="#ffcc75"/><rect x="55px" y="383px" width="360px" height="15px" fill="#ffcc75"/><path d="M310,336.025c0-4.142,3.357-7.5,7.5-7.5h75c4.143,0,7.5,3.358,7.5,7.5v2.5h25v-237.05H45v237.05h265   V336.025z M179.398,256.821c2.309,3.439,1.391,8.099-2.049,10.407c-1.282,0.861-2.735,1.273-4.172,1.273   c-2.416,0-4.787-1.165-6.234-3.322L145.66,233.46l-21.284,31.719c-1.447,2.157-3.818,3.322-6.234,3.322   c-1.437,0-2.89-0.412-4.172-1.273c-3.439-2.308-4.357-6.967-2.049-10.407L136.628,220l-24.707-36.821   c-2.309-3.439-1.391-8.099,2.049-10.407c3.438-2.309,8.099-1.39,10.406,2.049l21.284,31.719l21.284-31.719   c2.308-3.44,6.969-4.357,10.406-2.049c3.439,2.308,4.357,6.967,2.049,10.407L154.691,220L179.398,256.821z M265,226.844h-22.5v22.5   c0,4.142-3.357,7.5-7.5,7.5s-7.5-3.358-7.5-7.5v-22.5H205c-4.143,0-7.5-3.358-7.5-7.5s3.357-7.5,7.5-7.5h22.5v-22.5   c0-4.142,3.357-7.5,7.5-7.5s7.5,3.358,7.5,7.5v22.5H265c4.143,0,7.5,3.358,7.5,7.5S269.143,226.844,265,226.844z M292.65,172.772   c3.438-2.308,8.099-1.39,10.406,2.049l21.455,31.974l21.082-31.928c2.283-3.457,6.936-4.408,10.392-2.126   c3.456,2.282,4.408,6.935,2.126,10.391l-26.049,39.45V261c0,4.142-3.357,7.5-7.5,7.5s-7.5-3.358-7.5-7.5v-38.387l-26.46-39.434   C288.293,179.739,289.211,175.08,292.65,172.772z" fill="#6da8d6"/><path d="M177.35,172.772c-3.438-2.308-8.099-1.391-10.406,2.049L145.66,206.54l-21.284-31.719   c-2.308-3.439-6.968-4.358-10.406-2.049c-3.439,2.308-4.357,6.967-2.049,10.407L136.628,220l-24.707,36.821   c-2.309,3.439-1.391,8.099,2.049,10.407c1.282,0.861,2.735,1.273,4.172,1.273c2.416,0,4.787-1.165,6.234-3.322l21.284-31.719   l21.284,31.719c1.447,2.157,3.818,3.322,6.234,3.322c1.437,0,2.89-0.412,4.172-1.273c3.439-2.308,4.357-6.967,2.049-10.407   L154.691,220l24.707-36.821C181.707,179.739,180.789,175.08,177.35,172.772z" fill="#ffffff"/><path d="M317.062,222.613V261c0,4.142,3.357,7.5,7.5,7.5s7.5-3.358,7.5-7.5v-38.417l26.049-39.45   c2.282-3.457,1.33-8.109-2.126-10.391c-3.456-2.282-8.108-1.331-10.392,2.126l-21.082,31.928l-21.455-31.974   c-2.308-3.439-6.968-4.357-10.406-2.049c-3.439,2.308-4.357,6.967-2.049,10.407L317.062,222.613z" fill="#ffffff"/><path d="M265,211.844h-22.5v-22.5c0-4.142-3.357-7.5-7.5-7.5s-7.5,3.358-7.5,7.5v22.5H205   c-4.143,0-7.5,3.358-7.5,7.5s3.357,7.5,7.5,7.5h22.5v22.5c0,4.142,3.357,7.5,7.5,7.5s7.5-3.358,7.5-7.5v-22.5H265   c4.143,0,7.5-3.358,7.5-7.5S269.143,211.844,265,211.844z" fill="#ffffff"/><path d="M468.51,380.497c0.076-0.102,0.155-0.201,0.225-0.306c0.074-0.111,0.139-0.226,0.207-0.34   c0.057-0.096,0.118-0.19,0.171-0.29c0.062-0.115,0.114-0.234,0.169-0.352c0.049-0.104,0.101-0.206,0.146-0.313   c0.048-0.116,0.086-0.234,0.128-0.351c0.041-0.113,0.084-0.225,0.119-0.341c0.036-0.119,0.063-0.24,0.093-0.361   c0.029-0.117,0.062-0.232,0.086-0.351c0.028-0.141,0.045-0.284,0.065-0.427c0.014-0.1,0.033-0.198,0.043-0.299   c0.025-0.249,0.038-0.498,0.038-0.748V63.98c0-0.25-0.013-0.499-0.038-0.748c-0.01-0.101-0.029-0.199-0.043-0.299   c-0.02-0.143-0.037-0.285-0.065-0.427c-0.023-0.119-0.056-0.234-0.086-0.351c-0.03-0.121-0.057-0.242-0.093-0.361   c-0.035-0.116-0.079-0.228-0.119-0.341c-0.042-0.117-0.081-0.236-0.128-0.351c-0.044-0.107-0.096-0.209-0.146-0.313   c-0.055-0.118-0.108-0.236-0.169-0.352c-0.053-0.099-0.114-0.193-0.171-0.29c-0.068-0.114-0.132-0.229-0.207-0.34   c-0.071-0.106-0.149-0.205-0.225-0.306c-0.07-0.094-0.135-0.191-0.211-0.282c-0.146-0.178-0.301-0.348-0.463-0.512   c-0.23-0.229-0.403-0.386-0.583-0.534c-0.087-0.071-0.178-0.133-0.268-0.2c-0.107-0.08-0.211-0.163-0.322-0.237   c-0.107-0.071-0.217-0.133-0.327-0.199c-0.1-0.06-0.198-0.123-0.302-0.178c-0.113-0.06-0.229-0.111-0.344-0.165   c-0.107-0.05-0.212-0.104-0.321-0.149c-0.113-0.047-0.228-0.084-0.342-0.125c-0.116-0.042-0.232-0.087-0.351-0.123   c-0.115-0.035-0.231-0.06-0.347-0.089c-0.121-0.03-0.241-0.064-0.364-0.089c-0.135-0.027-0.272-0.043-0.408-0.062   c-0.106-0.015-0.21-0.035-0.317-0.046c-0.247-0.024-0.496-0.037-0.744-0.037H7.502c-0.248,0-0.496,0.013-0.744,0.037   c-0.107,0.01-0.211,0.031-0.317,0.046c-0.136,0.019-0.273,0.036-0.408,0.062c-0.123,0.024-0.243,0.058-0.364,0.089   c-0.116,0.029-0.232,0.055-0.347,0.089c-0.119,0.036-0.234,0.081-0.351,0.123C4.857,56.962,4.742,57,4.629,57.047   c-0.109,0.045-0.214,0.098-0.32,0.149c-0.115,0.054-0.231,0.105-0.344,0.166c-0.103,0.055-0.201,0.118-0.302,0.178   c-0.11,0.065-0.22,0.127-0.327,0.199c-0.111,0.074-0.216,0.157-0.322,0.237c-0.089,0.067-0.181,0.129-0.268,0.2   c-0.18,0.148-0.353,0.305-0.519,0.469c-0.226,0.229-0.381,0.399-0.527,0.577c-0.075,0.091-0.141,0.188-0.211,0.282   c-0.076,0.102-0.155,0.201-0.225,0.306c-0.074,0.111-0.139,0.226-0.207,0.34C1,60.245,0.94,60.339,0.887,60.438   c-0.062,0.116-0.115,0.235-0.17,0.354c-0.049,0.103-0.1,0.205-0.144,0.31c-0.048,0.116-0.087,0.235-0.129,0.353   c-0.04,0.113-0.084,0.224-0.119,0.339c-0.036,0.119-0.063,0.24-0.093,0.361c-0.029,0.117-0.062,0.232-0.086,0.351   c-0.028,0.141-0.045,0.284-0.065,0.427c-0.014,0.1-0.033,0.198-0.043,0.299C0.013,63.481,0,63.731,0,63.98v312.04   c0,0.25,0.013,0.499,0.038,0.748c0.01,0.101,0.029,0.199,0.043,0.299c0.02,0.143,0.037,0.285,0.065,0.427   c0.023,0.119,0.056,0.234,0.086,0.351c0.03,0.121,0.057,0.242,0.093,0.361c0.035,0.115,0.078,0.227,0.119,0.339   c0.042,0.118,0.081,0.237,0.129,0.353c0.044,0.106,0.095,0.207,0.144,0.31c0.055,0.118,0.108,0.238,0.17,0.354   c0.053,0.099,0.114,0.193,0.171,0.29c0.068,0.114,0.132,0.229,0.207,0.34c0.071,0.106,0.149,0.205,0.225,0.306   c0.07,0.094,0.135,0.191,0.211,0.282c0.146,0.178,0.301,0.348,0.463,0.512c0.23,0.229,0.403,0.386,0.583,0.534   c0.086,0.071,0.177,0.133,0.266,0.199c0.107,0.08,0.212,0.164,0.324,0.238c0.105,0.07,0.214,0.131,0.322,0.195   c0.102,0.061,0.203,0.125,0.308,0.182c0.11,0.059,0.222,0.108,0.334,0.161c0.11,0.052,0.218,0.107,0.331,0.154   c0.109,0.045,0.22,0.081,0.331,0.121c0.12,0.043,0.239,0.089,0.362,0.127c0.111,0.034,0.225,0.058,0.337,0.087   c0.125,0.031,0.247,0.066,0.374,0.091c0.13,0.026,0.262,0.041,0.393,0.06c0.111,0.016,0.22,0.037,0.333,0.048   c0.246,0.024,0.493,0.037,0.74,0.037H40v22.5c0,4.142,3.357,7.5,7.5,7.5h375c4.143,0,7.5-3.358,7.5-7.5v-22.5h32.5   c0.247,0,0.494-0.013,0.74-0.037c0.112-0.011,0.222-0.032,0.333-0.048c0.131-0.019,0.263-0.034,0.393-0.06   c0.127-0.025,0.25-0.06,0.374-0.091c0.113-0.028,0.226-0.053,0.337-0.087c0.123-0.037,0.242-0.083,0.363-0.127   c0.11-0.04,0.221-0.076,0.33-0.121c0.113-0.047,0.222-0.102,0.332-0.154c0.112-0.053,0.224-0.102,0.333-0.161   c0.105-0.056,0.206-0.121,0.308-0.182c0.108-0.064,0.217-0.125,0.322-0.195c0.112-0.075,0.217-0.158,0.324-0.238   c0.089-0.066,0.18-0.128,0.266-0.199c0.18-0.148,0.353-0.305,0.519-0.469c0.226-0.229,0.381-0.399,0.527-0.577   C468.375,380.688,468.44,380.592,468.51,380.497z M55,398.525v-15h360v15H55z M400,368.525v-15h29.393l15,15H400z M325,368.525v-25   h60v25H325z M45,338.525v-237.05h380v237.05h-25v-2.5c0-4.142-3.357-7.5-7.5-7.5h-75c-4.143,0-7.5,3.358-7.5,7.5v2.5H45z    M429.393,86.475H40.607l-15-15h418.786L429.393,86.475z M30,97.082v245.836l-15,15V82.082L30,97.082z M440,342.918V97.082l15-15   v275.836L440,342.918z M40.607,353.525H310v15H25.607L40.607,353.525z" fill="#082947"/></g><g transform="matrix(-0.10187879204750061 0 0 0.10187879204750061 200.94151306152344 274.5584716796875)" id="L1_142"><rect x="325px" y="343px" width="60px" height="25px" fill="#ffffff"/><path d="M40.607,86.475 429.393,86.475 444.393,71.475 25.607,71.475z" fill="#f2ebd9"/><path d="M310,368.525 310,353.525 40.607,353.525 25.607,368.525z" fill="#f2ebd9"/><path d="M429.393,353.525 400,353.525 400,368.525 444.393,368.525z" fill="#f2ebd9"/><path d="M30,342.918 30,97.082 15,82.082 15,357.918z" fill="#ffcc75"/><path d="M440,97.082 440,342.918 455,357.918 455,82.082z" fill="#ffcc75"/><rect x="55px" y="383px" width="360px" height="15px" fill="#ffcc75"/><path d="M310,336.025c0-4.142,3.357-7.5,7.5-7.5h75c4.143,0,7.5,3.358,7.5,7.5v2.5h25v-237.05H45v237.05h265   V336.025z M179.398,256.821c2.309,3.439,1.391,8.099-2.049,10.407c-1.282,0.861-2.735,1.273-4.172,1.273   c-2.416,0-4.787-1.165-6.234-3.322L145.66,233.46l-21.284,31.719c-1.447,2.157-3.818,3.322-6.234,3.322   c-1.437,0-2.89-0.412-4.172-1.273c-3.439-2.308-4.357-6.967-2.049-10.407L136.628,220l-24.707-36.821   c-2.309-3.439-1.391-8.099,2.049-10.407c3.438-2.309,8.099-1.39,10.406,2.049l21.284,31.719l21.284-31.719   c2.308-3.44,6.969-4.357,10.406-2.049c3.439,2.308,4.357,6.967,2.049,10.407L154.691,220L179.398,256.821z M265,226.844h-22.5v22.5   c0,4.142-3.357,7.5-7.5,7.5s-7.5-3.358-7.5-7.5v-22.5H205c-4.143,0-7.5-3.358-7.5-7.5s3.357-7.5,7.5-7.5h22.5v-22.5   c0-4.142,3.357-7.5,7.5-7.5s7.5,3.358,7.5,7.5v22.5H265c4.143,0,7.5,3.358,7.5,7.5S269.143,226.844,265,226.844z M292.65,172.772   c3.438-2.308,8.099-1.39,10.406,2.049l21.455,31.974l21.082-31.928c2.283-3.457,6.936-4.408,10.392-2.126   c3.456,2.282,4.408,6.935,2.126,10.391l-26.049,39.45V261c0,4.142-3.357,7.5-7.5,7.5s-7.5-3.358-7.5-7.5v-38.387l-26.46-39.434   C288.293,179.739,289.211,175.08,292.65,172.772z" fill="#6da8d6"/><path d="M177.35,172.772c-3.438-2.308-8.099-1.391-10.406,2.049L145.66,206.54l-21.284-31.719   c-2.308-3.439-6.968-4.358-10.406-2.049c-3.439,2.308-4.357,6.967-2.049,10.407L136.628,220l-24.707,36.821   c-2.309,3.439-1.391,8.099,2.049,10.407c1.282,0.861,2.735,1.273,4.172,1.273c2.416,0,4.787-1.165,6.234-3.322l21.284-31.719   l21.284,31.719c1.447,2.157,3.818,3.322,6.234,3.322c1.437,0,2.89-0.412,4.172-1.273c3.439-2.308,4.357-6.967,2.049-10.407   L154.691,220l24.707-36.821C181.707,179.739,180.789,175.08,177.35,172.772z" fill="#ffffff"/><path d="M317.062,222.613V261c0,4.142,3.357,7.5,7.5,7.5s7.5-3.358,7.5-7.5v-38.417l26.049-39.45   c2.282-3.457,1.33-8.109-2.126-10.391c-3.456-2.282-8.108-1.331-10.392,2.126l-21.082,31.928l-21.455-31.974   c-2.308-3.439-6.968-4.357-10.406-2.049c-3.439,2.308-4.357,6.967-2.049,10.407L317.062,222.613z" fill="#ffffff"/><path d="M265,211.844h-22.5v-22.5c0-4.142-3.357-7.5-7.5-7.5s-7.5,3.358-7.5,7.5v22.5H205   c-4.143,0-7.5,3.358-7.5,7.5s3.357,7.5,7.5,7.5h22.5v22.5c0,4.142,3.357,7.5,7.5,7.5s7.5-3.358,7.5-7.5v-22.5H265   c4.143,0,7.5-3.358,7.5-7.5S269.143,211.844,265,211.844z" fill="#ffffff"/><path d="M468.51,380.497c0.076-0.102,0.155-0.201,0.225-0.306c0.074-0.111,0.139-0.226,0.207-0.34   c0.057-0.096,0.118-0.19,0.171-0.29c0.062-0.115,0.114-0.234,0.169-0.352c0.049-0.104,0.101-0.206,0.146-0.313   c0.048-0.116,0.086-0.234,0.128-0.351c0.041-0.113,0.084-0.225,0.119-0.341c0.036-0.119,0.063-0.24,0.093-0.361   c0.029-0.117,0.062-0.232,0.086-0.351c0.028-0.141,0.045-0.284,0.065-0.427c0.014-0.1,0.033-0.198,0.043-0.299   c0.025-0.249,0.038-0.498,0.038-0.748V63.98c0-0.25-0.013-0.499-0.038-0.748c-0.01-0.101-0.029-0.199-0.043-0.299   c-0.02-0.143-0.037-0.285-0.065-0.427c-0.023-0.119-0.056-0.234-0.086-0.351c-0.03-0.121-0.057-0.242-0.093-0.361   c-0.035-0.116-0.079-0.228-0.119-0.341c-0.042-0.117-0.081-0.236-0.128-0.351c-0.044-0.107-0.096-0.209-0.146-0.313   c-0.055-0.118-0.108-0.236-0.169-0.352c-0.053-0.099-0.114-0.193-0.171-0.29c-0.068-0.114-0.132-0.229-0.207-0.34   c-0.071-0.106-0.149-0.205-0.225-0.306c-0.07-0.094-0.135-0.191-0.211-0.282c-0.146-0.178-0.301-0.348-0.463-0.512   c-0.23-0.229-0.403-0.386-0.583-0.534c-0.087-0.071-0.178-0.133-0.268-0.2c-0.107-0.08-0.211-0.163-0.322-0.237   c-0.107-0.071-0.217-0.133-0.327-0.199c-0.1-0.06-0.198-0.123-0.302-0.178c-0.113-0.06-0.229-0.111-0.344-0.165   c-0.107-0.05-0.212-0.104-0.321-0.149c-0.113-0.047-0.228-0.084-0.342-0.125c-0.116-0.042-0.232-0.087-0.351-0.123   c-0.115-0.035-0.231-0.06-0.347-0.089c-0.121-0.03-0.241-0.064-0.364-0.089c-0.135-0.027-0.272-0.043-0.408-0.062   c-0.106-0.015-0.21-0.035-0.317-0.046c-0.247-0.024-0.496-0.037-0.744-0.037H7.502c-0.248,0-0.496,0.013-0.744,0.037   c-0.107,0.01-0.211,0.031-0.317,0.046c-0.136,0.019-0.273,0.036-0.408,0.062c-0.123,0.024-0.243,0.058-0.364,0.089   c-0.116,0.029-0.232,0.055-0.347,0.089c-0.119,0.036-0.234,0.081-0.351,0.123C4.857,56.962,4.742,57,4.629,57.047   c-0.109,0.045-0.214,0.098-0.32,0.149c-0.115,0.054-0.231,0.105-0.344,0.166c-0.103,0.055-0.201,0.118-0.302,0.178   c-0.11,0.065-0.22,0.127-0.327,0.199c-0.111,0.074-0.216,0.157-0.322,0.237c-0.089,0.067-0.181,0.129-0.268,0.2   c-0.18,0.148-0.353,0.305-0.519,0.469c-0.226,0.229-0.381,0.399-0.527,0.577c-0.075,0.091-0.141,0.188-0.211,0.282   c-0.076,0.102-0.155,0.201-0.225,0.306c-0.074,0.111-0.139,0.226-0.207,0.34C1,60.245,0.94,60.339,0.887,60.438   c-0.062,0.116-0.115,0.235-0.17,0.354c-0.049,0.103-0.1,0.205-0.144,0.31c-0.048,0.116-0.087,0.235-0.129,0.353   c-0.04,0.113-0.084,0.224-0.119,0.339c-0.036,0.119-0.063,0.24-0.093,0.361c-0.029,0.117-0.062,0.232-0.086,0.351   c-0.028,0.141-0.045,0.284-0.065,0.427c-0.014,0.1-0.033,0.198-0.043,0.299C0.013,63.481,0,63.731,0,63.98v312.04   c0,0.25,0.013,0.499,0.038,0.748c0.01,0.101,0.029,0.199,0.043,0.299c0.02,0.143,0.037,0.285,0.065,0.427   c0.023,0.119,0.056,0.234,0.086,0.351c0.03,0.121,0.057,0.242,0.093,0.361c0.035,0.115,0.078,0.227,0.119,0.339   c0.042,0.118,0.081,0.237,0.129,0.353c0.044,0.106,0.095,0.207,0.144,0.31c0.055,0.118,0.108,0.238,0.17,0.354   c0.053,0.099,0.114,0.193,0.171,0.29c0.068,0.114,0.132,0.229,0.207,0.34c0.071,0.106,0.149,0.205,0.225,0.306   c0.07,0.094,0.135,0.191,0.211,0.282c0.146,0.178,0.301,0.348,0.463,0.512c0.23,0.229,0.403,0.386,0.583,0.534   c0.086,0.071,0.177,0.133,0.266,0.199c0.107,0.08,0.212,0.164,0.324,0.238c0.105,0.07,0.214,0.131,0.322,0.195   c0.102,0.061,0.203,0.125,0.308,0.182c0.11,0.059,0.222,0.108,0.334,0.161c0.11,0.052,0.218,0.107,0.331,0.154   c0.109,0.045,0.22,0.081,0.331,0.121c0.12,0.043,0.239,0.089,0.362,0.127c0.111,0.034,0.225,0.058,0.337,0.087   c0.125,0.031,0.247,0.066,0.374,0.091c0.13,0.026,0.262,0.041,0.393,0.06c0.111,0.016,0.22,0.037,0.333,0.048   c0.246,0.024,0.493,0.037,0.74,0.037H40v22.5c0,4.142,3.357,7.5,7.5,7.5h375c4.143,0,7.5-3.358,7.5-7.5v-22.5h32.5   c0.247,0,0.494-0.013,0.74-0.037c0.112-0.011,0.222-0.032,0.333-0.048c0.131-0.019,0.263-0.034,0.393-0.06   c0.127-0.025,0.25-0.06,0.374-0.091c0.113-0.028,0.226-0.053,0.337-0.087c0.123-0.037,0.242-0.083,0.363-0.127   c0.11-0.04,0.221-0.076,0.33-0.121c0.113-0.047,0.222-0.102,0.332-0.154c0.112-0.053,0.224-0.102,0.333-0.161   c0.105-0.056,0.206-0.121,0.308-0.182c0.108-0.064,0.217-0.125,0.322-0.195c0.112-0.075,0.217-0.158,0.324-0.238   c0.089-0.066,0.18-0.128,0.266-0.199c0.18-0.148,0.353-0.305,0.519-0.469c0.226-0.229,0.381-0.399,0.527-0.577   C468.375,380.688,468.44,380.592,468.51,380.497z M55,398.525v-15h360v15H55z M400,368.525v-15h29.393l15,15H400z M325,368.525v-25   h60v25H325z M45,338.525v-237.05h380v237.05h-25v-2.5c0-4.142-3.357-7.5-7.5-7.5h-75c-4.143,0-7.5,3.358-7.5,7.5v2.5H45z    M429.393,86.475H40.607l-15-15h418.786L429.393,86.475z M30,97.082v245.836l-15,15V82.082L30,97.082z M440,342.918V97.082l15-15   v275.836L440,342.918z M40.607,353.525H310v15H25.607L40.607,353.525z" fill="#082947"/></g><g transform="matrix(0.24444642663002014 0 0 0.24444642663002014 117.55509185791016 117.55509185791016)" id="L1_143"><path d="M315.393,312.75c-21.88-11.793-46.62-18.931-72.893-20.077V315c0,4.143-3.358,7.5-7.5,7.5   s-7.5-3.357-7.5-7.5v-22.327c-26.272,1.146-51.013,8.284-72.893,20.077l72.893,72.894V345c0-4.143,3.358-7.5,7.5-7.5   s7.5,3.357,7.5,7.5v40.644L315.393,312.75z" fill="#ffffff"/><path d="M153.75,156.25c0,44.802,36.449,81.25,81.25,81.25s81.25-36.448,81.25-81.25   c0-8.416-1.284-16.464-3.891-24.514c-9.108-4.539-19.365-6.933-29.85-6.933c-15.563,0-30.732,5.49-42.712,15.459   c-1.39,1.156-3.094,1.734-4.797,1.734s-3.407-0.578-4.797-1.734c-11.979-9.969-27.148-15.459-42.712-15.459   c-10.485,0-20.742,2.395-29.85,6.933C155.034,139.786,153.75,147.834,153.75,156.25z" fill="#f2ebd9"/><path d="M139.249,304.258C167.199,287.283,199.978,277.5,235,277.5s67.801,9.783,95.751,26.758   c0.602,0.272,1.177,0.622,1.704,1.061c7.469,4.648,14.584,9.811,21.295,15.443V282.5c-4.142,0-7.5-3.357-7.5-7.5V156.25   c0-23.276-7.09-45.43-20.25-64.037v33.045c3.518,10.175,5.25,20.329,5.25,30.992c0,53.072-43.178,96.25-96.25,96.25   s-96.25-43.178-96.25-96.25c0-10.663,1.732-20.817,5.25-30.992V92.213c-13.16,18.606-20.25,40.76-20.25,64.037V275   c0,4.143-3.358,7.5-7.5,7.5v38.263c6.711-5.632,13.826-10.795,21.295-15.443C138.073,304.88,138.647,304.53,139.249,304.258z" fill="#ffcc75"/><path d="M159,114.834c9.013-3.311,18.68-5.031,28.491-5.031c17.04,0,33.69,5.371,47.509,15.229   c13.819-9.858,30.47-15.229,47.509-15.229c9.811,0,19.478,1.721,28.491,5.031V47.5c0-4.143,3.358-7.5,7.5-7.5V25H159V114.834z" fill="#6da8d6"/><path d="M123.75,275V156.25c0-23.276,7.09-45.43,20.25-64.037v33.045c-3.518,10.175-5.25,20.329-5.25,30.992   c0,53.072,43.178,96.25,96.25,96.25s96.25-43.178,96.25-96.25c0-10.663-1.732-20.817-5.25-30.992V92.213   c13.16,18.606,20.25,40.76,20.25,64.037V275c0,4.143,3.358,7.5,7.5,7.5s7.5-3.357,7.5-7.5V156.25   c0-32.921-12.493-63.87-35.25-87.503V47.5c0-4.143-3.358-7.5-7.5-7.5s-7.5,3.357-7.5,7.5v67.334   c-9.013-3.311-18.68-5.031-28.491-5.031c-17.04,0-33.69,5.371-47.509,15.229c-13.819-9.858-30.47-15.229-47.509-15.229   c-9.811,0-19.478,1.721-28.491,5.031V25h226v129.758l-10.91,26.339c-1.585,3.827,0.232,8.214,4.059,9.799   c3.828,1.588,8.214-0.232,9.799-4.059l4.551-10.988l4.551,10.988c1.196,2.889,3.989,4.632,6.932,4.632   c0.957,0,1.929-0.185,2.867-0.573c3.827-1.585,5.644-5.972,4.059-9.799L400,154.758V25h12.5c4.142,0,7.5-3.357,7.5-7.5   s-3.358-7.5-7.5-7.5H400V7.5c0-4.143-3.358-7.5-7.5-7.5S385,3.357,385,7.5V10H57.5c-4.142,0-7.5,3.357-7.5,7.5s3.358,7.5,7.5,7.5   H144v43.747c-22.757,23.633-35.25,54.582-35.25,87.503V275c0,4.143,3.358,7.5,7.5,7.5S123.75,279.143,123.75,275z M187.491,124.803   c15.563,0,30.732,5.49,42.712,15.459c1.39,1.156,3.094,1.734,4.797,1.734s3.407-0.578,4.797-1.734   c11.979-9.969,27.148-15.459,42.712-15.459c10.485,0,20.742,2.395,29.85,6.933c2.607,8.05,3.891,16.099,3.891,24.514   c0,44.802-36.449,81.25-81.25,81.25s-81.25-36.448-81.25-81.25c0-8.416,1.284-16.464,3.891-24.514   C166.749,127.197,177.006,124.803,187.491,124.803z" fill="#082947"/><path d="M137.5,455h267.337c-2.444-56.051-32.163-105.136-76.177-134.303l-88.356,88.357   c-0.018,0.018-0.038,0.033-0.057,0.051c-0.156,0.153-0.317,0.301-0.486,0.44c-0.054,0.044-0.112,0.082-0.167,0.125   c-0.139,0.107-0.277,0.215-0.423,0.313c-0.049,0.033-0.101,0.06-0.151,0.091c-0.157,0.101-0.315,0.199-0.48,0.288   c-0.037,0.02-0.075,0.035-0.112,0.054c-0.181,0.093-0.363,0.182-0.552,0.261c-0.026,0.011-0.054,0.019-0.081,0.029   c-0.2,0.08-0.402,0.155-0.609,0.218c-0.026,0.008-0.054,0.013-0.08,0.021c-0.207,0.061-0.416,0.116-0.63,0.158   c-0.059,0.012-0.119,0.017-0.178,0.027c-0.182,0.032-0.363,0.063-0.549,0.082c-0.248,0.025-0.498,0.038-0.749,0.038   s-0.501-0.013-0.749-0.038c-0.186-0.019-0.368-0.05-0.549-0.082c-0.059-0.01-0.119-0.016-0.178-0.027   c-0.214-0.042-0.423-0.098-0.63-0.158c-0.026-0.008-0.054-0.013-0.08-0.021c-0.208-0.063-0.41-0.138-0.609-0.218   c-0.027-0.011-0.054-0.019-0.081-0.029c-0.189-0.079-0.371-0.168-0.552-0.261c-0.037-0.019-0.076-0.035-0.112-0.054   c-0.165-0.088-0.323-0.187-0.48-0.288c-0.05-0.031-0.102-0.059-0.151-0.091c-0.146-0.098-0.285-0.206-0.423-0.313   c-0.055-0.043-0.113-0.081-0.167-0.125c-0.169-0.139-0.33-0.287-0.486-0.44c-0.018-0.018-0.039-0.033-0.057-0.051l-88.356-88.357   C97.326,349.864,67.607,398.949,65.163,455H107.5c4.142,0,7.5,3.357,7.5,7.5h15C130,458.357,133.358,455,137.5,455z" fill="#185f8d"/><path d="M353.75,320.763c-6.711-5.632-13.826-10.795-21.295-15.443c-0.527-0.439-1.102-0.789-1.704-1.061   C302.801,287.283,270.022,277.5,235,277.5s-67.801,9.783-95.751,26.758c-0.602,0.272-1.177,0.622-1.704,1.061   c-7.469,4.648-14.584,9.811-21.295,15.443C75.778,354.726,50,405.655,50,462.5c0,4.143,3.358,7.5,7.5,7.5h50   c4.142,0,7.5-3.357,7.5-7.5s-3.358-7.5-7.5-7.5H65.163c2.444-56.051,32.163-105.136,76.177-134.303l88.356,88.357   c0.018,0.018,0.038,0.033,0.057,0.051c0.156,0.153,0.317,0.301,0.486,0.44c0.054,0.044,0.112,0.082,0.167,0.125   c0.139,0.107,0.277,0.215,0.423,0.313c0.049,0.033,0.101,0.06,0.151,0.091c0.157,0.101,0.315,0.199,0.48,0.288   c0.037,0.02,0.075,0.035,0.112,0.054c0.181,0.093,0.363,0.182,0.552,0.261c0.026,0.011,0.054,0.019,0.081,0.029   c0.2,0.08,0.402,0.155,0.609,0.218c0.026,0.008,0.054,0.013,0.08,0.021c0.207,0.061,0.416,0.116,0.63,0.158   c0.059,0.012,0.119,0.017,0.178,0.027c0.182,0.032,0.363,0.063,0.549,0.082c0.248,0.025,0.498,0.038,0.749,0.038   s0.501-0.013,0.749-0.038c0.186-0.019,0.368-0.05,0.549-0.082c0.059-0.01,0.119-0.016,0.178-0.027   c0.214-0.042,0.423-0.098,0.63-0.158c0.026-0.008,0.054-0.013,0.08-0.021c0.208-0.063,0.41-0.138,0.609-0.218   c0.027-0.011,0.054-0.019,0.081-0.029c0.189-0.079,0.371-0.168,0.552-0.261c0.037-0.019,0.076-0.035,0.112-0.054   c0.165-0.088,0.323-0.187,0.48-0.288c0.05-0.031,0.102-0.059,0.151-0.091c0.146-0.098,0.285-0.206,0.423-0.313   c0.055-0.043,0.113-0.081,0.167-0.125c0.169-0.139,0.33-0.287,0.486-0.44c0.018-0.018,0.039-0.033,0.057-0.051l88.356-88.357   c44.014,29.167,73.733,78.252,76.177,134.303H137.5c-4.142,0-7.5,3.357-7.5,7.5s3.358,7.5,7.5,7.5h275c4.142,0,7.5-3.357,7.5-7.5   C420,405.655,394.222,354.726,353.75,320.763z M235,337.5c-4.142,0-7.5,3.357-7.5,7.5v40.644l-72.893-72.894   c21.88-11.793,46.62-18.931,72.893-20.077V315c0,4.143,3.358,7.5,7.5,7.5s7.5-3.357,7.5-7.5v-22.327   c26.272,1.146,51.013,8.284,72.893,20.077L242.5,385.644V345C242.5,340.857,239.142,337.5,235,337.5z" fill="#082947"/></g><path d="M165,0C74.019,0,0,74.019,0,165s74.019,165,165,165c90.982,0,165-74.019,165-165S255.982,0,165,0z" transform="matrix(0.03030303120613098 0 0 0.03030303120613098 82.5 257.5)" id="L1_145" fill="#b4e632"/><g transform="matrix(0.058347638696432114 0 0 0.058347638696432114 277.0630187988281 220.06300354003906)" id="L1_146"><path d="M272.68,196.543L364.993,4.535C366.329,1.762,369.126,0,372.204,0h128.961    c2.75,0,5.305,1.414,6.773,3.742c1.461,2.328,1.625,5.246,0.438,7.723L385.985,266.039c-0.992,2.059-2.813,3.598-5.008,4.227    c-0.719,0.207-1.461,0.309-2.203,0.309c-1.5,0-2.984-0.422-4.281-1.238l-98.883-62.566    C272.18,204.598,270.923,200.199,272.68,196.543z" fill="#ff4f19"/><path d="M441.982,0h59.183c2.75,0,5.305,1.414,6.773,3.742c1.461,2.328,1.625,5.246,0.438,7.723    L385.985,266.039c-0.992,2.059-2.813,3.598-5.008,4.227c-0.719,0.207-1.461,0.309-2.203,0.309c-1.5,0-2.984-0.422-4.281-1.238    l-47.538-30.079L441.982,0z" fill="#e3001e"/><path d="M239.319,196.543L147.007,4.535C145.671,1.762,142.874,0,139.796,0H10.835    C8.085,0,5.53,1.414,4.062,3.742C2.601,6.07,2.437,8.988,3.624,11.465l122.391,254.574c0.992,2.059,2.813,3.598,5.008,4.227    c0.719,0.207,1.461,0.309,2.203,0.309c1.5,0,2.984-0.422,4.281-1.238l98.883-62.566    C239.819,204.598,241.077,200.199,239.319,196.543z" fill="#ff4f19"/><path d="M70.018,0H10.835C8.085,0,5.53,1.414,4.062,3.742C2.601,6.07,2.437,8.988,3.624,11.465    l122.391,254.574c0.992,2.059,2.813,3.598,5.008,4.227c0.719,0.207,1.461,0.309,2.203,0.309c1.5,0,2.984-0.422,4.281-1.238    l47.538-30.079L70.018,0z" fill="#e3001e"/><circle cx="256" cy="352" r="160" fill="#ffcd00"/><path d="M256.109,512c44.183,0,84.183-17.909,113.136-46.863L142.972,238.863    C114.017,267.817,96.109,307.817,96.109,352C96.109,440.365,167.743,512,256.109,512z" fill="#ff9100"/><path d="M297.944,431.207c-2.625,0-5.266-0.633-7.703-1.914l-34.133-17.941l-34.133,17.941     c-5.609,2.941-12.289,2.453-17.398-1.262c-5.133-3.727-7.648-9.922-6.578-16.168l6.516-38l-27.617-26.91     c-4.539-4.43-6.141-10.922-4.18-16.949s7.07-10.344,13.344-11.258l38.156-5.543l17.07-34.574     c2.797-5.68,8.477-9.211,14.812-9.215h0.008c6.344,0,12.023,3.531,14.828,9.215l17.063,34.574l38.148,5.543     c6.281,0.914,11.391,5.23,13.352,11.258s0.359,12.52-4.18,16.945l-27.617,26.914l6.523,38c1.07,6.246-1.445,12.441-6.578,16.168     C304.749,430.137,301.358,431.207,297.944,431.207z M188.069,335.492l30.625,29.848c1.883,1.84,2.742,4.488,2.297,7.082     l-7.227,42.145l4.492,7.645l-3.719-7.082l37.852-19.898c2.328-1.227,5.109-1.227,7.437,0l37.852,19.898l8.664-1.914l-7.883,1.352     l-7.234-42.145c-0.445-2.594,0.414-5.242,2.297-7.082l30.625-29.848l0.852-8.828l-1.148,7.918l-42.313-6.148     c-2.609-0.379-4.859-2.016-6.023-4.379l-18.922-38.344c0,0.008-0.477,0.004-0.766,0c-0.117,0-0.195,0-0.195,0l-18.93,38.348     c-1.164,2.359-3.414,3.996-6.023,4.375l-42.312,6.148l-5.883,6.641L188.069,335.492z" fill="#ffffff"/><path d="M384.132,360c-2.086,0-4.164-0.883-5.688-2.32c-1.516-1.52-2.313-3.602-2.313-5.68     c0-2.082,0.797-4.16,2.313-5.68c2.961-2.961,8.32-2.961,11.281,0c1.523,1.52,2.406,3.598,2.406,5.68     c0,2.078-0.883,4.16-2.406,5.68C388.288,359.117,386.21,360,384.132,360z" fill="#ffffff"/><path d="M256.132,232c-2.164,0-4.164-0.883-5.687-2.32c-1.516-1.52-2.313-3.602-2.313-5.68     c0-2.082,0.797-4.16,2.313-5.68c2.961-2.961,8.32-2.961,11.281,0c1.523,1.52,2.406,3.598,2.406,5.68     c0,2.078-0.883,4.16-2.406,5.68C260.288,231.117,258.21,232,256.132,232z" fill="#ffffff"/><path d="M165.569,269.519c-2.078,0-4.164-0.883-5.602-2.402c-1.523-1.438-2.398-3.52-2.398-5.598     c0-2.16,0.875-4.242,2.398-5.68c2.883-2.961,8.32-2.961,11.281,0c1.516,1.52,2.32,3.52,2.32,5.68c0,2.078-0.805,4.16-2.32,5.598     C169.726,268.637,167.726,269.519,165.569,269.519z" fill="#ffffff"/><path d="M346.608,450.48c-2.078,0-4.164-0.801-5.68-2.32c-1.438-1.441-2.32-3.523-2.32-5.68     c0-2.082,0.883-4.16,2.32-5.602c3.039-3.039,8.32-3.039,11.359,0c1.438,1.441,2.32,3.52,2.32,5.602     c0,2.156-0.883,4.156-2.32,5.68C350.765,449.68,348.687,450.48,346.608,450.48z" fill="#ffffff"/><path d="M346.608,269.519c-2.078,0-4.164-0.883-5.68-2.32c-1.438-1.52-2.32-3.602-2.32-5.68     c0-2.16,0.883-4.242,2.32-5.68c2.961-2.961,8.32-2.961,11.359,0c1.438,1.438,2.32,3.52,2.32,5.68c0,2.078-0.883,4.16-2.32,5.68     C350.765,268.637,348.687,269.519,346.608,269.519z" fill="#ffffff"/><path d="M374.366,311.039c-2.078,0-4.156-0.879-5.68-2.402c-1.438-1.438-2.32-3.52-2.32-5.598     c0-2.16,0.883-4.242,2.32-5.68c3.039-2.961,8.32-2.961,11.359,0c1.445,1.438,2.32,3.52,2.32,5.68c0,2.078-0.875,4.16-2.32,5.598     C378.53,310.16,376.444,311.039,374.366,311.039z" fill="#ffffff"/><path d="M207.085,241.758c-2.078,0-4.156-0.879-5.594-2.398c-1.523-1.441-2.406-3.52-2.406-5.602     c0-2.078,0.883-4.16,2.406-5.68c2.953-2.961,8.32-2.961,11.273,0c1.523,1.52,2.32,3.52,2.32,5.68c0,2.082-0.797,4.16-2.32,5.68     C211.249,240.879,209.249,241.758,207.085,241.758z" fill="#ffffff"/><path d="M374.366,408.957c-2.078,0-4.156-0.797-5.68-2.32c-1.438-1.52-2.32-3.52-2.32-5.68     c0-2.078,0.883-4.16,2.32-5.598c2.961-3.039,8.398-3.039,11.359,0c1.445,1.438,2.32,3.52,2.32,5.598c0,2.16-0.875,4.16-2.32,5.68     C378.53,408.16,376.444,408.957,374.366,408.957z" fill="#ffffff"/><path d="M305.085,241.758c-2.078,0-4.156-0.879-5.68-2.32c-1.438-1.52-2.32-3.598-2.32-5.68     c0-2.16,0.883-4.238,2.32-5.68c2.961-2.961,8.32-2.961,11.359,0c1.445,1.52,2.32,3.52,2.32,5.68c0,2.082-0.875,4.16-2.32,5.68     C309.249,240.879,307.171,241.758,305.085,241.758z" fill="#ffffff"/><path d="M381.569,334.48c-2.164,0-4.242-0.883-5.68-2.32c-1.523-1.523-2.32-3.602-2.32-5.68     c0-2.082,0.797-4.16,2.32-5.684c2.961-2.957,8.32-2.957,11.281,0c1.516,1.523,2.398,3.602,2.398,5.684     c0,2.078-0.883,4.156-2.398,5.68C385.726,333.598,383.647,334.48,381.569,334.48z" fill="#ffffff"/><path d="M230.608,234.559c-2.164,0-4.164-0.879-5.68-2.32c-1.523-1.52-2.32-3.52-2.32-5.68     c0-2.078,0.797-4.16,2.32-5.68c2.961-2.961,8.32-2.961,11.359,0c1.438,1.52,2.32,3.602,2.32,5.68s-0.883,4.16-2.32,5.68     C234.765,233.68,232.687,234.559,230.608,234.559z" fill="#ffffff"/><path d="M362.851,430.637c-2.086,0-4.164-0.879-5.68-2.316c-1.445-1.523-2.32-3.523-2.32-5.684     c0-2.078,0.875-4.156,2.32-5.68c2.961-2.957,8.398-2.957,11.359,0c1.438,1.523,2.32,3.602,2.32,5.68     c0,2.16-0.883,4.16-2.32,5.684C367.007,429.758,364.929,430.637,362.851,430.637z" fill="#ffffff"/><path d="M326.765,253.277c-2.078,0-4.156-0.879-5.68-2.32c-1.438-1.52-2.32-3.598-2.32-5.68     c0-2.16,0.883-4.16,2.32-5.68c2.961-2.961,8.406-2.961,11.281,0c1.523,1.441,2.398,3.52,2.398,5.68     c0,2.082-0.875,4.16-2.398,5.68C330.929,252.398,328.851,253.277,326.765,253.277z" fill="#ffffff"/><path d="M362.21,288.398c-2.078,0-4.164-0.801-5.68-2.32c-1.445-1.441-2.32-3.52-2.32-5.68     c0-2.078,0.875-4.16,2.32-5.68c3.039-2.961,8.32-2.961,11.359,0c1.516,1.52,2.32,3.602,2.32,5.68c0,2.16-0.805,4.238-2.32,5.68     C366.366,287.598,364.366,288.398,362.21,288.398z" fill="#ffffff"/><path d="M184.53,253.84c-2.164,0-4.164-0.801-5.68-2.32c-1.445-1.441-2.32-3.52-2.32-5.602     c0-2.16,0.875-4.238,2.32-5.68c2.961-2.961,8.398-2.961,11.359,0c1.438,1.441,2.32,3.52,2.32,5.68c0,2.082-0.883,4.16-2.32,5.602     C188.687,253.039,186.608,253.84,184.53,253.84z" fill="#ffffff"/><path d="M381.726,384.398c-2.078,0-4.156-0.801-5.68-2.32c-1.438-1.52-2.32-3.52-2.32-5.68     c0-2.078,0.883-4.16,2.32-5.68c3.039-2.961,8.32-2.961,11.359,0c1.523,1.52,2.32,3.602,2.32,5.68c0,2.16-0.797,4.16-2.32,5.68     C385.89,383.598,383.89,384.398,381.726,384.398z" fill="#ffffff"/><path d="M280.53,234.32c-2.164,0-4.164-0.801-5.68-2.32c-1.445-1.52-2.32-3.52-2.32-5.68     c0-2.082,0.875-4.16,2.32-5.602c2.961-3.039,8.32-3.039,11.359,0c1.438,1.441,2.32,3.52,2.32,5.602c0,2.16-0.883,4.238-2.32,5.68     C284.687,233.519,282.608,234.32,280.53,234.32z" fill="#ffffff"/><path d="M297.944,431.207c3.414,0,6.805-1.07,9.703-3.176c5.133-3.727,7.648-9.922,6.578-16.168    l-0.362-2.108l-19.593-19.593l4.189,24.404l7.883-1.352l-8.664,1.914l-37.852-19.898c-2.328-1.227-5.109-1.227-7.437,0    l-37.852,19.898l3.719,7.082l-4.492-7.645l7.227-42.145c0.445-2.594-0.414-5.242-2.297-7.082l-30.625-29.848l-5.586,5.73    l5.883-6.641l42.312-6.148c0.509-0.074,0.988-0.233,1.464-0.399l-13.955-13.956l-32.126,4.667    c-6.273,0.914-11.383,5.23-13.344,11.258s-0.359,12.52,4.18,16.949l27.617,26.91l-6.516,38c-1.07,6.246,1.445,12.441,6.578,16.168    c5.109,3.715,11.789,4.203,17.398,1.262l34.133-17.941l34.133,17.941C292.679,430.574,295.319,431.207,297.944,431.207z" fill="#ffcd00"/><path d="M128.132,360c-2.086,0-4.164-0.883-5.688-2.32c-1.438-1.52-2.312-3.602-2.312-5.68     c0-2.082,0.875-4.16,2.312-5.68c2.961-2.961,8.32-2.961,11.281,0c1.523,1.52,2.406,3.598,2.406,5.68     c0,2.078-0.883,4.16-2.406,5.68C132.288,359.117,130.21,360,128.132,360z" fill="#ffcd00"/><path d="M256.132,488c-2.086,0-4.164-0.883-5.687-2.32c-1.516-1.52-2.313-3.602-2.313-5.68     c0-2.082,0.797-4.16,2.313-5.68c3.047-2.961,8.32-2.961,11.281,0c1.523,1.52,2.406,3.598,2.406,5.68     c0,2.078-0.883,4.16-2.406,5.68C260.288,487.117,258.21,488,256.132,488z" fill="#ffcd00"/><path d="M165.569,450.48c-2.078,0-4.164-0.801-5.602-2.32c-1.523-1.523-2.398-3.602-2.398-5.68     c0-2.082,0.875-4.16,2.398-5.602c2.961-2.961,8.32-3.039,11.281,0c1.516,1.441,2.32,3.52,2.32,5.602     c0,2.078-0.805,4.156-2.32,5.68C169.812,449.68,167.726,450.48,165.569,450.48z" fill="#ffcd00"/><path d="M137.89,408.957c-2.164,0-4.242-0.797-5.68-2.32c-1.523-1.52-2.32-3.598-2.32-5.68     c0-2.078,0.797-4.16,2.32-5.598c2.961-3.039,8.32-3.039,11.281,0c1.516,1.438,2.398,3.52,2.398,5.598     c0,2.082-0.883,4.16-2.398,5.68C142.046,408.16,139.968,408.957,137.89,408.957z" fill="#ffcd00"/><path d="M305.085,478.238c-2.078,0-4.156-0.801-5.68-2.32c-1.438-1.438-2.32-3.52-2.32-5.68     c0-2.078,0.883-4.16,2.32-5.68c3.039-2.961,8.32-2.961,11.359,0c1.445,1.52,2.32,3.602,2.32,5.68c0,2.082-0.875,4.16-2.32,5.68     C309.249,477.437,307.171,478.238,305.085,478.238z" fill="#ffcd00"/><path d="M137.89,311.039c-2.164,0-4.242-0.879-5.68-2.402c-1.523-1.438-2.32-3.52-2.32-5.598     c0-2.16,0.797-4.242,2.32-5.68c2.961-2.961,8.32-2.961,11.281,0c1.516,1.52,2.398,3.52,2.398,5.68     c0,2.078-0.883,4.16-2.398,5.598C142.046,310.16,139.968,311.039,137.89,311.039z" fill="#ffcd00"/><path d="M207.085,478.238c-2.078,0-4.156-0.801-5.594-2.32c-1.523-1.52-2.406-3.52-2.406-5.68     c0-2.078,0.883-4.16,2.406-5.602c2.953-3.039,8.32-3.039,11.273,0c1.523,1.441,2.32,3.523,2.32,5.602     c0,2.16-0.797,4.16-2.32,5.68C211.327,477.437,209.249,478.238,207.085,478.238z" fill="#ffcd00"/><path d="M130.687,385.519c-2.078,0-4.156-0.883-5.68-2.32c-1.438-1.52-2.32-3.602-2.32-5.68     c0-2.082,0.883-4.16,2.32-5.68c3.039-2.961,8.32-2.961,11.359,0c1.445,1.52,2.32,3.598,2.32,5.68c0,2.078-0.875,4.16-2.32,5.68     C134.851,384.637,132.765,385.519,130.687,385.519z" fill="#ffcd00"/><path d="M281.647,485.437c-2.156,0-4.242-0.879-5.68-2.32c-1.523-1.52-2.32-3.598-2.32-5.68     c0-2.078,0.797-4.16,2.32-5.68c2.961-2.961,8.32-2.961,11.281,0c1.516,1.52,2.398,3.602,2.398,5.68     c0,2.082-0.883,4.16-2.398,5.68C285.812,484.558,283.726,485.437,281.647,485.437z" fill="#ffcd00"/><path d="M149.405,289.359c-2.156,0-4.234-0.879-5.68-2.32c-1.516-1.52-2.32-3.602-2.32-5.68     c0-2.16,0.805-4.16,2.32-5.68c2.961-2.961,8.32-2.961,11.281,0c1.523,1.52,2.398,3.598,2.398,5.68c0,2.078-0.875,4.16-2.398,5.68     C153.569,288.48,151.491,289.359,149.405,289.359z" fill="#ffcd00"/><path d="M185.491,466.719c-2.164,0-4.242-0.879-5.68-2.32c-1.523-1.52-2.32-3.52-2.32-5.68     c0-2.082,0.797-4.16,2.32-5.602c2.953-3.039,8.32-3.039,11.273,0c1.523,1.441,2.406,3.52,2.406,5.602     c0,2.16-0.883,4.16-2.406,5.68C189.648,465.84,187.569,466.719,185.491,466.719z" fill="#ffcd00"/><path d="M149.968,431.598c-2.078,0-4.156-0.879-5.68-2.398c-1.438-1.441-2.32-3.52-2.32-5.602     c0-2.16,0.883-4.16,2.32-5.68c3.039-2.961,8.398-2.961,11.359,0c1.523,1.52,2.32,3.52,2.32,5.68c0,2.082-0.797,4.16-2.32,5.602     C154.132,430.719,152.132,431.598,149.968,431.598z" fill="#ffcd00"/><path d="M327.726,466.078c-2.156,0-4.234-0.801-5.68-2.32c-1.516-1.438-2.32-3.52-2.32-5.68     c0-2.078,0.805-4.16,2.32-5.598c2.883-2.961,8.32-3.043,11.281,0c1.523,1.438,2.398,3.52,2.398,5.598     c0,2.16-0.875,4.242-2.398,5.68C331.89,465.277,329.812,466.078,327.726,466.078z" fill="#ffcd00"/><path d="M130.444,335.598c-2.078,0-4.156-0.879-5.68-2.398c-1.438-1.441-2.32-3.52-2.32-5.602     c0-2.16,0.883-4.16,2.32-5.68c2.961-2.961,8.406-2.961,11.367,0c1.516,1.52,2.313,3.52,2.313,5.68     c0,2.082-0.797,4.16-2.313,5.602C134.608,334.719,132.53,335.598,130.444,335.598z" fill="#ffcd00"/><path d="M231.648,485.68c-2.078,0-4.156-0.883-5.602-2.402c-1.516-1.438-2.32-3.52-2.32-5.598     c0-2.16,0.805-4.242,2.32-5.68c2.961-2.961,8.32-2.961,11.281,0c1.523,1.438,2.32,3.52,2.32,5.68c0,2.078-0.797,4.16-2.32,5.598     C235.89,484.797,233.812,485.68,231.648,485.68z" fill="#ffcd00"/><path d="M159.96,255.851c-1.517,1.438-2.391,3.513-2.391,5.668c0,2.078,0.875,4.16,2.398,5.598    c1.438,1.52,3.523,2.402,5.602,2.402c2.15,0,4.144-0.88,5.666-2.393L159.96,255.851z" fill="#ffcd00"/><path d="M346.608,450.48c2.073,0,4.145-0.799,5.668-2.313l-11.312-11.312    c-0.01,0.01-0.025,0.013-0.036,0.023c-1.438,1.441-2.32,3.52-2.32,5.602c0,2.156,0.883,4.238,2.32,5.68    C342.444,449.68,344.53,450.48,346.608,450.48z" fill="#ffcd00"/></g></defs><g fi:class="KUsePattern" opacity="0.37"><pattern id="pattern_L1_137" width="350" height="350" patternUnits="userSpaceOnUse"><use xlink:href="#L1_137" x="-350" y="-350"/><use xlink:href="#L1_137" x="0" y="-350"/><use xlink:href="#L1_137" x="350" y="-350"/><use xlink:href="#L1_137" x="-350" y="0"/><use xlink:href="#L1_137" x="0" y="0"/><use xlink:href="#L1_137" x="350" y="0"/><use xlink:href="#L1_137" x="-350" y="350"/><use xlink:href="#L1_137" x="0" y="350"/><use xlink:href="#L1_137" x="350" y="350"/></pattern><rect x="0" y="0" width="100%" height="100%" fill="url(#pattern_L1_137)"/></g><g fi:class="KUsePattern"><pattern id="pattern_L1_144" width="350" height="350" patternUnits="userSpaceOnUse"><use xlink:href="#L1_144" x="-350" y="-350"/><use xlink:href="#L1_144" x="0" y="-350"/><use xlink:href="#L1_144" x="350" y="-350"/><use xlink:href="#L1_144" x="-350" y="0"/><use xlink:href="#L1_144" x="0" y="0"/><use xlink:href="#L1_144" x="350" y="0"/><use xlink:href="#L1_144" x="-350" y="350"/><use xlink:href="#L1_144" x="0" y="350"/><use xlink:href="#L1_144" x="350" y="350"/></pattern><rect x="0" y="0" width="100%" height="100%" fill="url(#pattern_L1_144)"/></g><g fi:class="KUsePattern"><pattern id="pattern_L1_139" width="350" height="350" patternUnits="userSpaceOnUse"><use xlink:href="#L1_139" x="-350" y="-350"/><use xlink:href="#L1_139" x="0" y="-350"/><use xlink:href="#L1_139" x="350" y="-350"/><use xlink:href="#L1_139" x="-350" y="0"/><use xlink:href="#L1_139" x="0" y="0"/><use xlink:href="#L1_139" x="350" y="0"/><use xlink:href="#L1_139" x="-350" y="350"/><use xlink:href="#L1_139" x="0" y="350"/><use xlink:href="#L1_139" x="350" y="350"/></pattern><rect x="0" y="0" width="100%" height="100%" fill="url(#pattern_L1_139)"/></g><g fi:class="KUsePattern" opacity="0.53"><pattern id="pattern_L1_140" width="350" height="350" patternUnits="userSpaceOnUse"><use xlink:href="#L1_140" x="-350" y="-350"/><use xlink:href="#L1_140" x="0" y="-350"/><use xlink:href="#L1_140" x="350" y="-350"/><use xlink:href="#L1_140" x="-350" y="0"/><use xlink:href="#L1_140" x="0" y="0"/><use xlink:href="#L1_140" x="350" y="0"/><use xlink:href="#L1_140" x="-350" y="350"/><use xlink:href="#L1_140" x="0" y="350"/><use xlink:href="#L1_140" x="350" y="350"/></pattern><rect x="0" y="0" width="100%" height="100%" fill="url(#pattern_L1_140)"/></g><g fi:class="KUsePattern"><pattern id="pattern_L1_141" width="350" height="350" patternUnits="userSpaceOnUse"><use xlink:href="#L1_141" x="-350" y="-350"/><use xlink:href="#L1_141" x="0" y="-350"/><use xlink:href="#L1_141" x="350" y="-350"/><use xlink:href="#L1_141" x="-350" y="0"/><use xlink:href="#L1_141" x="0" y="0"/><use xlink:href="#L1_141" x="350" y="0"/><use xlink:href="#L1_141" x="-350" y="350"/><use xlink:href="#L1_141" x="0" y="350"/><use xlink:href="#L1_141" x="350" y="350"/></pattern><rect x="0" y="0" width="100%" height="100%" fill="url(#pattern_L1_141)"/></g><g fi:class="KUsePattern"><pattern id="pattern_L1_142" width="350" height="350" patternUnits="userSpaceOnUse"><use xlink:href="#L1_142" x="-350" y="-350"/><use xlink:href="#L1_142" x="0" y="-350"/><use xlink:href="#L1_142" x="350" y="-350"/><use xlink:href="#L1_142" x="-350" y="0"/><use xlink:href="#L1_142" x="0" y="0"/><use xlink:href="#L1_142" x="350" y="0"/><use xlink:href="#L1_142" x="-350" y="350"/><use xlink:href="#L1_142" x="0" y="350"/><use xlink:href="#L1_142" x="350" y="350"/></pattern><rect x="0" y="0" width="100%" height="100%" fill="url(#pattern_L1_142)"/></g><g fi:class="KUsePattern"><pattern id="pattern_L1_143" width="350" height="350" patternUnits="userSpaceOnUse"><use xlink:href="#L1_143" x="-350" y="-350"/><use xlink:href="#L1_143" x="0" y="-350"/><use xlink:href="#L1_143" x="350" y="-350"/><use xlink:href="#L1_143" x="-350" y="0"/><use xlink:href="#L1_143" x="0" y="0"/><use xlink:href="#L1_143" x="350" y="0"/><use xlink:href="#L1_143" x="-350" y="350"/><use xlink:href="#L1_143" x="0" y="350"/><use xlink:href="#L1_143" x="350" y="350"/></pattern><rect x="0" y="0" width="100%" height="100%" fill="url(#pattern_L1_143)"/></g><g fi:class="KUsePattern"><pattern id="pattern_L1_145" width="350" height="350" patternUnits="userSpaceOnUse"><use xlink:href="#L1_145" x="-350" y="-350"/><use xlink:href="#L1_145" x="0" y="-350"/><use xlink:href="#L1_145" x="350" y="-350"/><use xlink:href="#L1_145" x="-350" y="0"/><use xlink:href="#L1_145" x="0" y="0"/><use xlink:href="#L1_145" x="350" y="0"/><use xlink:href="#L1_145" x="-350" y="350"/><use xlink:href="#L1_145" x="0" y="350"/><use xlink:href="#L1_145" x="350" y="350"/></pattern><rect x="0" y="0" width="100%" height="100%" fill="url(#pattern_L1_145)"/></g><g fi:class="KUsePattern"><pattern id="pattern_L1_146" width="350" height="350" patternUnits="userSpaceOnUse"><use xlink:href="#L1_146" x="-350" y="-350"/><use xlink:href="#L1_146" x="0" y="-350"/><use xlink:href="#L1_146" x="350" y="-350"/><use xlink:href="#L1_146" x="-350" y="0"/><use xlink:href="#L1_146" x="0" y="0"/><use xlink:href="#L1_146" x="350" y="0"/><use xlink:href="#L1_146" x="-350" y="350"/><use xlink:href="#L1_146" x="0" y="350"/><use xlink:href="#L1_146" x="350" y="350"/></pattern><rect x="0" y="0" width="100%" height="100%" fill="url(#pattern_L1_146)"/></g></svg>